  0
SECTION
  2
HEADER
  9
$EXTMIN
 10
675197.000
 20
230170.000
  9
$EXTMAX
 10
686460.000
 20
245397.000
  0
ENDSEC
  0
SECTION
  2
TABLES
  0
TABLE
  2
LTYPE
 70
     1
  0
LTYPE
  2
CONTINUOUS
 70
    64
  3
Solid line
 72
    65
 73
     0
 40
0.0
  0
ENDTAB
  0
TABLE
  2
LAYER
 70
    10
  0
LAYER
  2
Bezirk
 70
    64
 62
     1
 6
CONTINUOUS
  0
LAYER
  2
Gemeinde
 70
    64
 62
     1
 6
CONTINUOUS
  0
LAYER
  2
Kanton
 70
    64
 62
     1
 6
CONTINUOUS
  0
LAYER
  2
Stallikon
 70
    64
 62
     1
 6
CONTINUOUS
  0
LAYER
  2
Adliswil
 70
    64
 62
     1
 6
CONTINUOUS
  0
LAYER
  2
Langnau_am_Albis
 70
    64
 62
     1
 6
CONTINUOUS
  0
LAYER
  2
Aeugst_am_Albis
 70
    64
 62
     1
 6
CONTINUOUS
  0
LAYER
  2
Hausen_am_Albis
 70
    64
 62
     1
 6
CONTINUOUS
  0
LAYER
  2
Mettmenstetten
 70
    64
 62
     1
 6
CONTINUOUS
  0
LAYER
  2
Rifferswil
 70
    64
 62
     1
 6
CONTINUOUS
  0
ENDTAB
  0
TABLE
  2
STYLE
 70
     1
  0
ENDTAB
  0
ENDSEC
  0
SECTION
  2
BLOCKS
  0
ENDSEC
  0
SECTION
  2
ENTITIES
  0
POLYLINE
  8
Bezirk
 66
     1
 70
     0
  0
VERTEX
  8
Bezirk
 10
678265.000
 20
245270.000
 30
0.0
 70
     0
  0
VERTEX
  8
Bezirk
 10
678277.000
 20
245282.000
 30
0.0
 70
     0
  0
VERTEX
  8
Bezirk
 10
678352.000
 20
245285.000
 30
0.0
 70
     0
  0
VERTEX
  8
Bezirk
 10
678385.000
 20
245262.000
 30
0.0
 70
     0
  0
VERTEX
  8
Bezirk
 10
678407.000
 20
245240.000
 30
0.0
 70
     0
  0
VERTEX
  8
Bezirk
 10
678472.000
 20
245307.000
 30
0.0
 70
     0
  0
VERTEX
  8
Bezirk
 10
678505.000
 20
245312.000
 30
0.0
 70
     0
  0
VERTEX
  8
Bezirk
 10
678525.000
 20
245337.000
 30
0.0
 70
     0
  0
VERTEX
  8
Bezirk
 10
678605.000
 20
245370.000
 30
0.0
 70
     0
  0
VERTEX
  8
Bezirk
 10
678622.000
 20
245372.000
 30
0.0
 70
     0
  0
VERTEX
  8
Bezirk
 10
678637.000
 20
245392.000
 30
0.0
 70
     0
  0
VERTEX
  8
Bezirk
 10
678670.000
 20
245397.000
 30
0.0
 70
     0
  0
VERTEX
  8
Bezirk
 10
679075.000
 20
245190.000
 30
0.0
 70
     0
  0
VERTEX
  8
Bezirk
 10
679202.000
 20
245177.000
 30
0.0
 70
     0
  0
SEQEND
  0
POLYLINE
  8
Bezirk
 66
     1
 70
     0
  0
VERTEX
  8
Bezirk
 10
677705.000
 20
244712.000
 30
0.0
 70
     0
  0
VERTEX
  8
Bezirk
 10
677762.000
 20
244720.000
 30
0.0
 70
     0
  0
VERTEX
  8
Bezirk
 10
677775.000
 20
244747.000
 30
0.0
 70
     0
  0
VERTEX
  8
Bezirk
 10
677810.000
 20
244725.000
 30
0.0
 70
     0
  0
VERTEX
  8
Bezirk
 10
677860.000
 20
244677.000
 30
0.0
 70
     0
  0
VERTEX
  8
Bezirk
 10
677882.000
 20
244672.000
 30
0.0
 70
     0
  0
VERTEX
  8
Bezirk
 10
677922.000
 20
244715.000
 30
0.0
 70
     0
  0
VERTEX
  8
Bezirk
 10
677947.000
 20
244737.000
 30
0.0
 70
     0
  0
VERTEX
  8
Bezirk
 10
677970.000
 20
244767.000
 30
0.0
 70
     0
  0
VERTEX
  8
Bezirk
 10
677935.000
 20
244805.000
 30
0.0
 70
     0
  0
VERTEX
  8
Bezirk
 10
677902.000
 20
244847.000
 30
0.0
 70
     0
  0
VERTEX
  8
Bezirk
 10
677850.000
 20
244897.000
 30
0.0
 70
     0
  0
VERTEX
  8
Bezirk
 10
677897.000
 20
244955.000
 30
0.0
 70
     0
  0
VERTEX
  8
Bezirk
 10
677907.000
 20
244982.000
 30
0.0
 70
     0
  0
VERTEX
  8
Bezirk
 10
677937.000
 20
245015.000
 30
0.0
 70
     0
  0
VERTEX
  8
Bezirk
 10
677960.000
 20
245055.000
 30
0.0
 70
     0
  0
VERTEX
  8
Bezirk
 10
678050.000
 20
245015.000
 30
0.0
 70
     0
  0
VERTEX
  8
Bezirk
 10
678117.000
 20
245095.000
 30
0.0
 70
     0
  0
VERTEX
  8
Bezirk
 10
678160.000
 20
245062.000
 30
0.0
 70
     0
  0
VERTEX
  8
Bezirk
 10
678177.000
 20
245055.000
 30
0.0
 70
     0
  0
VERTEX
  8
Bezirk
 10
678190.000
 20
245135.000
 30
0.0
 70
     0
  0
VERTEX
  8
Bezirk
 10
678190.000
 20
245172.000
 30
0.0
 70
     0
  0
VERTEX
  8
Bezirk
 10
678210.000
 20
245212.000
 30
0.0
 70
     0
  0
VERTEX
  8
Bezirk
 10
678240.000
 20
245247.000
 30
0.0
 70
     0
  0
VERTEX
  8
Bezirk
 10
678265.000
 20
245270.000
 30
0.0
 70
     0
  0
SEQEND
  0
POLYLINE
  8
Gemeinde
 66
     1
 70
     0
  0
VERTEX
  8
Gemeinde
 10
677705.000
 20
244712.000
 30
0.0
 70
     0
  0
VERTEX
  8
Gemeinde
 10
677737.000
 20
244682.000
 30
0.0
 70
     0
  0
VERTEX
  8
Gemeinde
 10
677902.000
 20
244570.000
 30
0.0
 70
     0
  0
VERTEX
  8
Gemeinde
 10
678110.000
 20
244415.000
 30
0.0
 70
     0
  0
VERTEX
  8
Gemeinde
 10
678195.000
 20
244345.000
 30
0.0
 70
     0
  0
VERTEX
  8
Gemeinde
 10
678315.000
 20
244260.000
 30
0.0
 70
     0
  0
VERTEX
  8
Gemeinde
 10
678405.000
 20
244115.000
 30
0.0
 70
     0
  0
VERTEX
  8
Gemeinde
 10
678485.000
 20
243997.000
 30
0.0
 70
     0
  0
VERTEX
  8
Gemeinde
 10
678582.000
 20
243870.000
 30
0.0
 70
     0
  0
VERTEX
  8
Gemeinde
 10
678587.000
 20
243845.000
 30
0.0
 70
     0
  0
VERTEX
  8
Gemeinde
 10
678685.000
 20
243740.000
 30
0.0
 70
     0
  0
VERTEX
  8
Gemeinde
 10
678717.000
 20
243682.000
 30
0.0
 70
     0
  0
VERTEX
  8
Gemeinde
 10
678850.000
 20
243387.000
 30
0.0
 70
     0
  0
VERTEX
  8
Gemeinde
 10
678912.000
 20
243270.000
 30
0.0
 70
     0
  0
VERTEX
  8
Gemeinde
 10
678960.000
 20
243137.000
 30
0.0
 70
     0
  0
VERTEX
  8
Gemeinde
 10
678985.000
 20
243047.000
 30
0.0
 70
     0
  0
VERTEX
  8
Gemeinde
 10
679022.000
 20
242967.000
 30
0.0
 70
     0
  0
VERTEX
  8
Gemeinde
 10
679062.000
 20
242847.000
 30
0.0
 70
     0
  0
VERTEX
  8
Gemeinde
 10
679107.000
 20
242747.000
 30
0.0
 70
     0
  0
VERTEX
  8
Gemeinde
 10
679122.000
 20
242695.000
 30
0.0
 70
     0
  0
VERTEX
  8
Gemeinde
 10
679067.000
 20
242540.000
 30
0.0
 70
     0
  0
VERTEX
  8
Gemeinde
 10
679032.000
 20
242427.000
 30
0.0
 70
     0
  0
VERTEX
  8
Gemeinde
 10
679010.000
 20
242312.000
 30
0.0
 70
     0
  0
VERTEX
  8
Gemeinde
 10
679007.000
 20
242257.000
 30
0.0
 70
     0
  0
VERTEX
  8
Gemeinde
 10
679000.000
 20
242207.000
 30
0.0
 70
     0
  0
VERTEX
  8
Gemeinde
 10
679000.000
 20
242175.000
 30
0.0
 70
     0
  0
VERTEX
  8
Gemeinde
 10
678982.000
 20
242132.000
 30
0.0
 70
     0
  0
VERTEX
  8
Gemeinde
 10
679017.000
 20
242040.000
 30
0.0
 70
     0
  0
VERTEX
  8
Gemeinde
 10
679017.000
 20
242000.000
 30
0.0
 70
     0
  0
VERTEX
  8
Gemeinde
 10
679020.000
 20
241972.000
 30
0.0
 70
     0
  0
SEQEND
  0
POLYLINE
  8
Bezirk
 66
     1
 70
     0
  0
VERTEX
  8
Bezirk
 10
682965.000
 20
242722.000
 30
0.0
 70
     0
  0
VERTEX
  8
Bezirk
 10
682917.000
 20
242712.000
 30
0.0
 70
     0
  0
VERTEX
  8
Bezirk
 10
682795.000
 20
242700.000
 30
0.0
 70
     0
  0
VERTEX
  8
Bezirk
 10
682757.000
 20
242700.000
 30
0.0
 70
     0
  0
VERTEX
  8
Bezirk
 10
682652.000
 20
242660.000
 30
0.0
 70
     0
  0
VERTEX
  8
Bezirk
 10
682622.000
 20
242647.000
 30
0.0
 70
     0
  0
VERTEX
  8
Bezirk
 10
682615.000
 20
242627.000
 30
0.0
 70
     0
  0
VERTEX
  8
Bezirk
 10
682612.000
 20
242552.000
 30
0.0
 70
     0
  0
VERTEX
  8
Bezirk
 10
682580.000
 20
242472.000
 30
0.0
 70
     0
  0
VERTEX
  8
Bezirk
 10
682475.000
 20
242460.000
 30
0.0
 70
     0
  0
VERTEX
  8
Bezirk
 10
682455.000
 20
242462.000
 30
0.0
 70
     0
  0
VERTEX
  8
Bezirk
 10
682450.000
 20
242352.000
 30
0.0
 70
     0
  0
VERTEX
  8
Bezirk
 10
682422.000
 20
242362.000
 30
0.0
 70
     0
  0
VERTEX
  8
Bezirk
 10
682340.000
 20
242347.000
 30
0.0
 70
     0
  0
VERTEX
  8
Bezirk
 10
682317.000
 20
242350.000
 30
0.0
 70
     0
  0
VERTEX
  8
Bezirk
 10
682315.000
 20
242310.000
 30
0.0
 70
     0
  0
VERTEX
  8
Bezirk
 10
682322.000
 20
242270.000
 30
0.0
 70
     0
  0
VERTEX
  8
Bezirk
 10
682172.000
 20
242275.000
 30
0.0
 70
     0
  0
VERTEX
  8
Bezirk
 10
682165.000
 20
242230.000
 30
0.0
 70
     0
  0
VERTEX
  8
Bezirk
 10
682072.000
 20
242257.000
 30
0.0
 70
     0
  0
VERTEX
  8
Bezirk
 10
682070.000
 20
242165.000
 30
0.0
 70
     0
  0
VERTEX
  8
Bezirk
 10
682032.000
 20
242067.000
 30
0.0
 70
     0
  0
VERTEX
  8
Bezirk
 10
681960.000
 20
242080.000
 30
0.0
 70
     0
  0
VERTEX
  8
Bezirk
 10
681892.000
 20
242085.000
 30
0.0
 70
     0
  0
VERTEX
  8
Bezirk
 10
681897.000
 20
242040.000
 30
0.0
 70
     0
  0
VERTEX
  8
Bezirk
 10
681887.000
 20
242027.000
 30
0.0
 70
     0
  0
VERTEX
  8
Bezirk
 10
681837.000
 20
242027.000
 30
0.0
 70
     0
  0
VERTEX
  8
Bezirk
 10
681790.000
 20
242020.000
 30
0.0
 70
     0
  0
VERTEX
  8
Bezirk
 10
681745.000
 20
242030.000
 30
0.0
 70
     0
  0
VERTEX
  8
Bezirk
 10
681697.000
 20
242030.000
 30
0.0
 70
     0
  0
VERTEX
  8
Bezirk
 10
681667.000
 20
242020.000
 30
0.0
 70
     0
  0
VERTEX
  8
Bezirk
 10
681640.000
 20
242000.000
 30
0.0
 70
     0
  0
VERTEX
  8
Bezirk
 10
681592.000
 20
241965.000
 30
0.0
 70
     0
  0
VERTEX
  8
Bezirk
 10
681577.000
 20
241932.000
 30
0.0
 70
     0
  0
VERTEX
  8
Bezirk
 10
681555.000
 20
241925.000
 30
0.0
 70
     0
  0
VERTEX
  8
Bezirk
 10
681517.000
 20
241930.000
 30
0.0
 70
     0
  0
VERTEX
  8
Bezirk
 10
681462.000
 20
241920.000
 30
0.0
 70
     0
  0
VERTEX
  8
Bezirk
 10
681437.000
 20
241925.000
 30
0.0
 70
     0
  0
VERTEX
  8
Bezirk
 10
681392.000
 20
241917.000
 30
0.0
 70
     0
  0
VERTEX
  8
Bezirk
 10
681370.000
 20
241902.000
 30
0.0
 70
     0
  0
VERTEX
  8
Bezirk
 10
681355.000
 20
241882.000
 30
0.0
 70
     0
  0
VERTEX
  8
Bezirk
 10
681340.000
 20
241872.000
 30
0.0
 70
     0
  0
VERTEX
  8
Bezirk
 10
681295.000
 20
241882.000
 30
0.0
 70
     0
  0
VERTEX
  8
Bezirk
 10
681270.000
 20
241892.000
 30
0.0
 70
     0
  0
VERTEX
  8
Bezirk
 10
681230.000
 20
241895.000
 30
0.0
 70
     0
  0
VERTEX
  8
Bezirk
 10
681207.000
 20
241892.000
 30
0.0
 70
     0
  0
VERTEX
  8
Bezirk
 10
681180.000
 20
241877.000
 30
0.0
 70
     0
  0
VERTEX
  8
Bezirk
 10
681122.000
 20
241817.000
 30
0.0
 70
     0
  0
VERTEX
  8
Bezirk
 10
681095.000
 20
241802.000
 30
0.0
 70
     0
  0
VERTEX
  8
Bezirk
 10
681062.000
 20
241795.000
 30
0.0
 70
     0
  0
VERTEX
  8
Bezirk
 10
680965.000
 20
241787.000
 30
0.0
 70
     0
  0
VERTEX
  8
Bezirk
 10
680955.000
 20
241755.000
 30
0.0
 70
     0
  0
VERTEX
  8
Bezirk
 10
680912.000
 20
241757.000
 30
0.0
 70
     0
  0
VERTEX
  8
Bezirk
 10
680860.000
 20
241782.000
 30
0.0
 70
     0
  0
VERTEX
  8
Bezirk
 10
680835.000
 20
241790.000
 30
0.0
 70
     0
  0
VERTEX
  8
Bezirk
 10
680792.000
 20
241755.000
 30
0.0
 70
     0
  0
VERTEX
  8
Bezirk
 10
680775.000
 20
241755.000
 30
0.0
 70
     0
  0
VERTEX
  8
Bezirk
 10
680692.000
 20
241725.000
 30
0.0
 70
     0
  0
VERTEX
  8
Bezirk
 10
680625.000
 20
241715.000
 30
0.0
 70
     0
  0
VERTEX
  8
Bezirk
 10
680592.000
 20
241687.000
 30
0.0
 70
     0
  0
VERTEX
  8
Bezirk
 10
680572.000
 20
241650.000
 30
0.0
 70
     0
  0
VERTEX
  8
Bezirk
 10
680557.000
 20
241632.000
 30
0.0
 70
     0
  0
VERTEX
  8
Bezirk
 10
680477.000
 20
241585.000
 30
0.0
 70
     0
  0
SEQEND
  0
POLYLINE
  8
Bezirk
 66
     1
 70
     0
  0
VERTEX
  8
Bezirk
 10
679202.000
 20
245177.000
 30
0.0
 70
     0
  0
VERTEX
  8
Bezirk
 10
679195.000
 20
245137.000
 30
0.0
 70
     0
  0
VERTEX
  8
Bezirk
 10
679205.000
 20
245115.000
 30
0.0
 70
     0
  0
VERTEX
  8
Bezirk
 10
679272.000
 20
245110.000
 30
0.0
 70
     0
  0
VERTEX
  8
Bezirk
 10
679282.000
 20
245092.000
 30
0.0
 70
     0
  0
VERTEX
  8
Bezirk
 10
679327.000
 20
245080.000
 30
0.0
 70
     0
  0
VERTEX
  8
Bezirk
 10
679402.000
 20
244975.000
 30
0.0
 70
     0
  0
VERTEX
  8
Bezirk
 10
679430.000
 20
244945.000
 30
0.0
 70
     0
  0
VERTEX
  8
Bezirk
 10
679485.000
 20
244947.000
 30
0.0
 70
     0
  0
VERTEX
  8
Bezirk
 10
679512.000
 20
244965.000
 30
0.0
 70
     0
  0
VERTEX
  8
Bezirk
 10
679522.000
 20
244922.000
 30
0.0
 70
     0
  0
VERTEX
  8
Bezirk
 10
679542.000
 20
244897.000
 30
0.0
 70
     0
  0
VERTEX
  8
Bezirk
 10
679550.000
 20
244855.000
 30
0.0
 70
     0
  0
VERTEX
  8
Bezirk
 10
679590.000
 20
244827.000
 30
0.0
 70
     0
  0
VERTEX
  8
Bezirk
 10
679672.000
 20
244687.000
 30
0.0
 70
     0
  0
VERTEX
  8
Bezirk
 10
679712.000
 20
244670.000
 30
0.0
 70
     0
  0
VERTEX
  8
Bezirk
 10
679762.000
 20
244657.000
 30
0.0
 70
     0
  0
VERTEX
  8
Bezirk
 10
679807.000
 20
244625.000
 30
0.0
 70
     0
  0
VERTEX
  8
Bezirk
 10
679830.000
 20
244592.000
 30
0.0
 70
     0
  0
VERTEX
  8
Bezirk
 10
679837.000
 20
244557.000
 30
0.0
 70
     0
  0
VERTEX
  8
Bezirk
 10
679857.000
 20
244547.000
 30
0.0
 70
     0
  0
VERTEX
  8
Bezirk
 10
679880.000
 20
244542.000
 30
0.0
 70
     0
  0
VERTEX
  8
Bezirk
 10
679902.000
 20
244522.000
 30
0.0
 70
     0
  0
VERTEX
  8
Bezirk
 10
679927.000
 20
244512.000
 30
0.0
 70
     0
  0
VERTEX
  8
Bezirk
 10
679985.000
 20
244425.000
 30
0.0
 70
     0
  0
VERTEX
  8
Bezirk
 10
680007.000
 20
244400.000
 30
0.0
 70
     0
  0
VERTEX
  8
Bezirk
 10
680040.000
 20
244375.000
 30
0.0
 70
     0
  0
VERTEX
  8
Bezirk
 10
680072.000
 20
244302.000
 30
0.0
 70
     0
  0
VERTEX
  8
Bezirk
 10
680077.000
 20
244277.000
 30
0.0
 70
     0
  0
VERTEX
  8
Bezirk
 10
680067.000
 20
244207.000
 30
0.0
 70
     0
  0
VERTEX
  8
Bezirk
 10
680037.000
 20
244170.000
 30
0.0
 70
     0
  0
VERTEX
  8
Bezirk
 10
679995.000
 20
244140.000
 30
0.0
 70
     0
  0
VERTEX
  8
Bezirk
 10
679990.000
 20
244067.000
 30
0.0
 70
     0
  0
VERTEX
  8
Bezirk
 10
680002.000
 20
244042.000
 30
0.0
 70
     0
  0
VERTEX
  8
Bezirk
 10
680070.000
 20
243985.000
 30
0.0
 70
     0
  0
VERTEX
  8
Bezirk
 10
680110.000
 20
243820.000
 30
0.0
 70
     0
  0
VERTEX
  8
Bezirk
 10
680132.000
 20
243755.000
 30
0.0
 70
     0
  0
VERTEX
  8
Bezirk
 10
680200.000
 20
243657.000
 30
0.0
 70
     0
  0
VERTEX
  8
Bezirk
 10
680240.000
 20
243605.000
 30
0.0
 70
     0
  0
VERTEX
  8
Bezirk
 10
680332.000
 20
243505.000
 30
0.0
 70
     0
  0
VERTEX
  8
Bezirk
 10
680380.000
 20
243520.000
 30
0.0
 70
     0
  0
VERTEX
  8
Bezirk
 10
680400.000
 20
243467.000
 30
0.0
 70
     0
  0
VERTEX
  8
Bezirk
 10
680405.000
 20
243412.000
 30
0.0
 70
     0
  0
VERTEX
  8
Bezirk
 10
680367.000
 20
243385.000
 30
0.0
 70
     0
  0
VERTEX
  8
Bezirk
 10
680347.000
 20
243335.000
 30
0.0
 70
     0
  0
VERTEX
  8
Bezirk
 10
680332.000
 20
243230.000
 30
0.0
 70
     0
  0
VERTEX
  8
Bezirk
 10
680340.000
 20
243185.000
 30
0.0
 70
     0
  0
VERTEX
  8
Bezirk
 10
680360.000
 20
243140.000
 30
0.0
 70
     0
  0
VERTEX
  8
Bezirk
 10
680365.000
 20
243110.000
 30
0.0
 70
     0
  0
VERTEX
  8
Bezirk
 10
680380.000
 20
243085.000
 30
0.0
 70
     0
  0
VERTEX
  8
Bezirk
 10
680372.000
 20
243032.000
 30
0.0
 70
     0
  0
VERTEX
  8
Bezirk
 10
680320.000
 20
242985.000
 30
0.0
 70
     0
  0
VERTEX
  8
Bezirk
 10
680295.000
 20
242950.000
 30
0.0
 70
     0
  0
VERTEX
  8
Bezirk
 10
680282.000
 20
242915.000
 30
0.0
 70
     0
  0
VERTEX
  8
Bezirk
 10
680282.000
 20
242895.000
 30
0.0
 70
     0
  0
VERTEX
  8
Bezirk
 10
680305.000
 20
242877.000
 30
0.0
 70
     0
  0
VERTEX
  8
Bezirk
 10
680275.000
 20
242812.000
 30
0.0
 70
     0
  0
VERTEX
  8
Bezirk
 10
680272.000
 20
242792.000
 30
0.0
 70
     0
  0
VERTEX
  8
Bezirk
 10
680292.000
 20
242735.000
 30
0.0
 70
     0
  0
VERTEX
  8
Bezirk
 10
680285.000
 20
242647.000
 30
0.0
 70
     0
  0
VERTEX
  8
Bezirk
 10
680297.000
 20
242617.000
 30
0.0
 70
     0
  0
VERTEX
  8
Bezirk
 10
680330.000
 20
242580.000
 30
0.0
 70
     0
  0
VERTEX
  8
Bezirk
 10
680325.000
 20
242545.000
 30
0.0
 70
     0
  0
VERTEX
  8
Bezirk
 10
680370.000
 20
242417.000
 30
0.0
 70
     0
  0
VERTEX
  8
Bezirk
 10
680362.000
 20
242387.000
 30
0.0
 70
     0
  0
VERTEX
  8
Bezirk
 10
680345.000
 20
242370.000
 30
0.0
 70
     0
  0
VERTEX
  8
Bezirk
 10
680347.000
 20
242307.000
 30
0.0
 70
     0
  0
VERTEX
  8
Bezirk
 10
680342.000
 20
242275.000
 30
0.0
 70
     0
  0
VERTEX
  8
Bezirk
 10
680312.000
 20
242237.000
 30
0.0
 70
     0
  0
VERTEX
  8
Bezirk
 10
680312.000
 20
242162.000
 30
0.0
 70
     0
  0
VERTEX
  8
Bezirk
 10
680302.000
 20
242117.000
 30
0.0
 70
     0
  0
VERTEX
  8
Bezirk
 10
680295.000
 20
242115.000
 30
0.0
 70
     0
  0
VERTEX
  8
Bezirk
 10
680295.000
 20
242095.000
 30
0.0
 70
     0
  0
VERTEX
  8
Bezirk
 10
680282.000
 20
242067.000
 30
0.0
 70
     0
  0
VERTEX
  8
Bezirk
 10
680282.000
 20
242042.000
 30
0.0
 70
     0
  0
VERTEX
  8
Bezirk
 10
680292.000
 20
242000.000
 30
0.0
 70
     0
  0
VERTEX
  8
Bezirk
 10
680285.000
 20
241937.000
 30
0.0
 70
     0
  0
VERTEX
  8
Bezirk
 10
680285.000
 20
241857.000
 30
0.0
 70
     0
  0
VERTEX
  8
Bezirk
 10
680305.000
 20
241845.000
 30
0.0
 70
     0
  0
VERTEX
  8
Bezirk
 10
680310.000
 20
241795.000
 30
0.0
 70
     0
  0
VERTEX
  8
Bezirk
 10
680340.000
 20
241722.000
 30
0.0
 70
     0
  0
VERTEX
  8
Bezirk
 10
680365.000
 20
241682.000
 30
0.0
 70
     0
  0
VERTEX
  8
Bezirk
 10
680407.000
 20
241652.000
 30
0.0
 70
     0
  0
VERTEX
  8
Bezirk
 10
680427.000
 20
241617.000
 30
0.0
 70
     0
  0
VERTEX
  8
Bezirk
 10
680477.000
 20
241585.000
 30
0.0
 70
     0
  0
SEQEND
  0
POLYLINE
  8
Gemeinde
 66
     1
 70
     0
  0
VERTEX
  8
Gemeinde
 10
682965.000
 20
242722.000
 30
0.0
 70
     0
  0
VERTEX
  8
Gemeinde
 10
682977.000
 20
242700.000
 30
0.0
 70
     0
  0
VERTEX
  8
Gemeinde
 10
682945.000
 20
242637.000
 30
0.0
 70
     0
  0
VERTEX
  8
Gemeinde
 10
682930.000
 20
242577.000
 30
0.0
 70
     0
  0
VERTEX
  8
Gemeinde
 10
682890.000
 20
242476.000
 30
0.0
 70
     0
  0
VERTEX
  8
Gemeinde
 10
682886.000
 20
242464.000
 30
0.0
 70
     0
  0
VERTEX
  8
Gemeinde
 10
682888.000
 20
242455.000
 30
0.0
 70
     0
  0
VERTEX
  8
Gemeinde
 10
682888.000
 20
242453.000
 30
0.0
 70
     0
  0
VERTEX
  8
Gemeinde
 10
682887.000
 20
242451.000
 30
0.0
 70
     0
  0
VERTEX
  8
Gemeinde
 10
682886.000
 20
242449.000
 30
0.0
 70
     0
  0
VERTEX
  8
Gemeinde
 10
682884.000
 20
242448.000
 30
0.0
 70
     0
  0
VERTEX
  8
Gemeinde
 10
682880.000
 20
242445.000
 30
0.0
 70
     0
  0
VERTEX
  8
Gemeinde
 10
682878.000
 20
242443.000
 30
0.0
 70
     0
  0
VERTEX
  8
Gemeinde
 10
682876.000
 20
242441.000
 30
0.0
 70
     0
  0
VERTEX
  8
Gemeinde
 10
682875.000
 20
242437.000
 30
0.0
 70
     0
  0
VERTEX
  8
Gemeinde
 10
682872.000
 20
242422.000
 30
0.0
 70
     0
  0
VERTEX
  8
Gemeinde
 10
682866.000
 20
242398.000
 30
0.0
 70
     0
  0
VERTEX
  8
Gemeinde
 10
682859.000
 20
242369.000
 30
0.0
 70
     0
  0
VERTEX
  8
Gemeinde
 10
682853.000
 20
242339.000
 30
0.0
 70
     0
  0
VERTEX
  8
Gemeinde
 10
682850.000
 20
242329.000
 30
0.0
 70
     0
  0
VERTEX
  8
Gemeinde
 10
682850.000
 20
242319.000
 30
0.0
 70
     0
  0
VERTEX
  8
Gemeinde
 10
682850.000
 20
242309.000
 30
0.0
 70
     0
  0
VERTEX
  8
Gemeinde
 10
682851.000
 20
242299.000
 30
0.0
 70
     0
  0
VERTEX
  8
Gemeinde
 10
682851.000
 20
242296.000
 30
0.0
 70
     0
  0
VERTEX
  8
Gemeinde
 10
682850.000
 20
242294.000
 30
0.0
 70
     0
  0
VERTEX
  8
Gemeinde
 10
682849.000
 20
242292.000
 30
0.0
 70
     0
  0
VERTEX
  8
Gemeinde
 10
682845.000
 20
242289.000
 30
0.0
 70
     0
  0
VERTEX
  8
Gemeinde
 10
682841.000
 20
242282.000
 30
0.0
 70
     0
  0
VERTEX
  8
Gemeinde
 10
682841.000
 20
242278.000
 30
0.0
 70
     0
  0
VERTEX
  8
Gemeinde
 10
682843.000
 20
242275.000
 30
0.0
 70
     0
  0
VERTEX
  8
Gemeinde
 10
682847.000
 20
242272.000
 30
0.0
 70
     0
  0
VERTEX
  8
Gemeinde
 10
682851.000
 20
242272.000
 30
0.0
 70
     0
  0
VERTEX
  8
Gemeinde
 10
682855.000
 20
242273.000
 30
0.0
 70
     0
  0
VERTEX
  8
Gemeinde
 10
682859.000
 20
242277.000
 30
0.0
 70
     0
  0
VERTEX
  8
Gemeinde
 10
682859.000
 20
242270.000
 30
0.0
 70
     0
  0
VERTEX
  8
Gemeinde
 10
682840.000
 20
242120.000
 30
0.0
 70
     0
  0
VERTEX
  8
Gemeinde
 10
682840.000
 20
242072.000
 30
0.0
 70
     0
  0
VERTEX
  8
Gemeinde
 10
682852.000
 20
242000.000
 30
0.0
 70
     0
  0
VERTEX
  8
Gemeinde
 10
682882.000
 20
241877.000
 30
0.0
 70
     0
  0
VERTEX
  8
Gemeinde
 10
682897.000
 20
241845.000
 30
0.0
 70
     0
  0
VERTEX
  8
Gemeinde
 10
682905.000
 20
241810.000
 30
0.0
 70
     0
  0
VERTEX
  8
Gemeinde
 10
682905.000
 20
241752.000
 30
0.0
 70
     0
  0
VERTEX
  8
Gemeinde
 10
682925.000
 20
241567.000
 30
0.0
 70
     0
  0
VERTEX
  8
Gemeinde
 10
682932.000
 20
241522.000
 30
0.0
 70
     0
  0
VERTEX
  8
Gemeinde
 10
682965.000
 20
241457.000
 30
0.0
 70
     0
  0
VERTEX
  8
Gemeinde
 10
682980.000
 20
241455.000
 30
0.0
 70
     0
  0
VERTEX
  8
Gemeinde
 10
682980.000
 20
241407.000
 30
0.0
 70
     0
  0
VERTEX
  8
Gemeinde
 10
683025.000
 20
241345.000
 30
0.0
 70
     0
  0
VERTEX
  8
Gemeinde
 10
682992.000
 20
241315.000
 30
0.0
 70
     0
  0
VERTEX
  8
Gemeinde
 10
683017.000
 20
241272.000
 30
0.0
 70
     0
  0
VERTEX
  8
Gemeinde
 10
683077.000
 20
241205.000
 30
0.0
 70
     0
  0
VERTEX
  8
Gemeinde
 10
683070.000
 20
241177.000
 30
0.0
 70
     0
  0
VERTEX
  8
Gemeinde
 10
683077.000
 20
241110.000
 30
0.0
 70
     0
  0
VERTEX
  8
Gemeinde
 10
683065.000
 20
241035.000
 30
0.0
 70
     0
  0
VERTEX
  8
Gemeinde
 10
683037.000
 20
240985.000
 30
0.0
 70
     0
  0
VERTEX
  8
Gemeinde
 10
683147.000
 20
240830.000
 30
0.0
 70
     0
  0
VERTEX
  8
Gemeinde
 10
683237.000
 20
240840.000
 30
0.0
 70
     0
  0
VERTEX
  8
Gemeinde
 10
683257.000
 20
240815.000
 30
0.0
 70
     0
  0
VERTEX
  8
Gemeinde
 10
683257.000
 20
240777.000
 30
0.0
 70
     0
  0
VERTEX
  8
Gemeinde
 10
683252.000
 20
240747.000
 30
0.0
 70
     0
  0
VERTEX
  8
Gemeinde
 10
683270.000
 20
240727.000
 30
0.0
 70
     0
  0
VERTEX
  8
Gemeinde
 10
683297.000
 20
240677.000
 30
0.0
 70
     0
  0
VERTEX
  8
Gemeinde
 10
683205.000
 20
240620.000
 30
0.0
 70
     0
  0
VERTEX
  8
Gemeinde
 10
683277.000
 20
240462.000
 30
0.0
 70
     0
  0
VERTEX
  8
Gemeinde
 10
683280.000
 20
240477.000
 30
0.0
 70
     0
  0
VERTEX
  8
Gemeinde
 10
683292.000
 20
240487.000
 30
0.0
 70
     0
  0
SEQEND
  0
POLYLINE
  8
Gemeinde
 66
     1
 70
     0
  0
VERTEX
  8
Gemeinde
 10
683292.000
 20
240487.000
 30
0.0
 70
     0
  0
VERTEX
  8
Gemeinde
 10
683305.000
 20
240425.000
 30
0.0
 70
     0
  0
VERTEX
  8
Gemeinde
 10
683307.000
 20
240395.000
 30
0.0
 70
     0
  0
VERTEX
  8
Gemeinde
 10
683305.000
 20
240357.000
 30
0.0
 70
     0
  0
VERTEX
  8
Gemeinde
 10
683337.000
 20
240350.000
 30
0.0
 70
     0
  0
VERTEX
  8
Gemeinde
 10
683330.000
 20
240285.000
 30
0.0
 70
     0
  0
VERTEX
  8
Gemeinde
 10
683305.000
 20
240240.000
 30
0.0
 70
     0
  0
VERTEX
  8
Gemeinde
 10
683327.000
 20
240207.000
 30
0.0
 70
     0
  0
VERTEX
  8
Gemeinde
 10
683307.000
 20
240200.000
 30
0.0
 70
     0
  0
VERTEX
  8
Gemeinde
 10
683277.000
 20
240137.000
 30
0.0
 70
     0
  0
VERTEX
  8
Gemeinde
 10
683240.000
 20
240077.000
 30
0.0
 70
     0
  0
VERTEX
  8
Gemeinde
 10
683217.000
 20
240050.000
 30
0.0
 70
     0
  0
VERTEX
  8
Gemeinde
 10
683197.000
 20
240035.000
 30
0.0
 70
     0
  0
VERTEX
  8
Gemeinde
 10
683167.000
 20
240022.000
 30
0.0
 70
     0
  0
VERTEX
  8
Gemeinde
 10
683107.000
 20
239987.000
 30
0.0
 70
     0
  0
VERTEX
  8
Gemeinde
 10
683087.000
 20
239965.000
 30
0.0
 70
     0
  0
VERTEX
  8
Gemeinde
 10
683065.000
 20
239920.000
 30
0.0
 70
     0
  0
VERTEX
  8
Gemeinde
 10
683045.000
 20
239922.000
 30
0.0
 70
     0
  0
VERTEX
  8
Gemeinde
 10
683015.000
 20
239920.000
 30
0.0
 70
     0
  0
VERTEX
  8
Gemeinde
 10
682917.000
 20
239882.000
 30
0.0
 70
     0
  0
VERTEX
  8
Gemeinde
 10
682867.000
 20
239870.000
 30
0.0
 70
     0
  0
VERTEX
  8
Gemeinde
 10
682822.000
 20
239845.000
 30
0.0
 70
     0
  0
VERTEX
  8
Gemeinde
 10
682797.000
 20
239810.000
 30
0.0
 70
     0
  0
VERTEX
  8
Gemeinde
 10
682797.000
 20
239762.000
 30
0.0
 70
     0
  0
VERTEX
  8
Gemeinde
 10
682802.000
 20
239732.000
 30
0.0
 70
     0
  0
VERTEX
  8
Gemeinde
 10
682825.000
 20
239655.000
 30
0.0
 70
     0
  0
VERTEX
  8
Gemeinde
 10
682797.000
 20
239650.000
 30
0.0
 70
     0
  0
VERTEX
  8
Gemeinde
 10
682730.000
 20
239590.000
 30
0.0
 70
     0
  0
VERTEX
  8
Gemeinde
 10
682585.000
 20
239427.000
 30
0.0
 70
     0
  0
SEQEND
  0
POLYLINE
  8
Gemeinde
 66
     1
 70
     0
  0
VERTEX
  8
Gemeinde
 10
679020.000
 20
241972.000
 30
0.0
 70
     0
  0
VERTEX
  8
Gemeinde
 10
679070.000
 20
241910.000
 30
0.0
 70
     0
  0
VERTEX
  8
Gemeinde
 10
679085.000
 20
241860.000
 30
0.0
 70
     0
  0
VERTEX
  8
Gemeinde
 10
679142.000
 20
241807.000
 30
0.0
 70
     0
  0
VERTEX
  8
Gemeinde
 10
679157.000
 20
241782.000
 30
0.0
 70
     0
  0
VERTEX
  8
Gemeinde
 10
679157.000
 20
241727.000
 30
0.0
 70
     0
  0
VERTEX
  8
Gemeinde
 10
679102.000
 20
241677.000
 30
0.0
 70
     0
  0
VERTEX
  8
Gemeinde
 10
679067.000
 20
241665.000
 30
0.0
 70
     0
  0
VERTEX
  8
Gemeinde
 10
679050.000
 20
241647.000
 30
0.0
 70
     0
  0
VERTEX
  8
Gemeinde
 10
679037.000
 20
241617.000
 30
0.0
 70
     0
  0
VERTEX
  8
Gemeinde
 10
679030.000
 20
241575.000
 30
0.0
 70
     0
  0
VERTEX
  8
Gemeinde
 10
678990.000
 20
241522.000
 30
0.0
 70
     0
  0
VERTEX
  8
Gemeinde
 10
678977.000
 20
241482.000
 30
0.0
 70
     0
  0
VERTEX
  8
Gemeinde
 10
678980.000
 20
241440.000
 30
0.0
 70
     0
  0
VERTEX
  8
Gemeinde
 10
678960.000
 20
241395.000
 30
0.0
 70
     0
  0
VERTEX
  8
Gemeinde
 10
678970.000
 20
241340.000
 30
0.0
 70
     0
  0
VERTEX
  8
Gemeinde
 10
678962.000
 20
241282.000
 30
0.0
 70
     0
  0
VERTEX
  8
Gemeinde
 10
678962.000
 20
241227.000
 30
0.0
 70
     0
  0
VERTEX
  8
Gemeinde
 10
678997.000
 20
241127.000
 30
0.0
 70
     0
  0
VERTEX
  8
Gemeinde
 10
679022.000
 20
241082.000
 30
0.0
 70
     0
  0
VERTEX
  8
Gemeinde
 10
679055.000
 20
241057.000
 30
0.0
 70
     0
  0
VERTEX
  8
Gemeinde
 10
679072.000
 20
240977.000
 30
0.0
 70
     0
  0
VERTEX
  8
Gemeinde
 10
679140.000
 20
240920.000
 30
0.0
 70
     0
  0
VERTEX
  8
Gemeinde
 10
679152.000
 20
240877.000
 30
0.0
 70
     0
  0
VERTEX
  8
Gemeinde
 10
679200.000
 20
240832.000
 30
0.0
 70
     0
  0
VERTEX
  8
Gemeinde
 10
679240.000
 20
240802.000
 30
0.0
 70
     0
  0
VERTEX
  8
Gemeinde
 10
679312.000
 20
240792.000
 30
0.0
 70
     0
  0
VERTEX
  8
Gemeinde
 10
679365.000
 20
240762.000
 30
0.0
 70
     0
  0
VERTEX
  8
Gemeinde
 10
679375.000
 20
240740.000
 30
0.0
 70
     0
  0
VERTEX
  8
Gemeinde
 10
679427.000
 20
240722.000
 30
0.0
 70
     0
  0
VERTEX
  8
Gemeinde
 10
679495.000
 20
240717.000
 30
0.0
 70
     0
  0
VERTEX
  8
Gemeinde
 10
679580.000
 20
240725.000
 30
0.0
 70
     0
  0
VERTEX
  8
Gemeinde
 10
679645.000
 20
240697.000
 30
0.0
 70
     0
  0
VERTEX
  8
Gemeinde
 10
679617.000
 20
240637.000
 30
0.0
 70
     0
  0
VERTEX
  8
Gemeinde
 10
679575.000
 20
240610.000
 30
0.0
 70
     0
  0
VERTEX
  8
Gemeinde
 10
679467.000
 20
240605.000
 30
0.0
 70
     0
  0
VERTEX
  8
Gemeinde
 10
679365.000
 20
240575.000
 30
0.0
 70
     0
  0
VERTEX
  8
Gemeinde
 10
679335.000
 20
240580.000
 30
0.0
 70
     0
  0
VERTEX
  8
Gemeinde
 10
679320.000
 20
240597.000
 30
0.0
 70
     0
  0
VERTEX
  8
Gemeinde
 10
679280.000
 20
240580.000
 30
0.0
 70
     0
  0
VERTEX
  8
Gemeinde
 10
679180.000
 20
240515.000
 30
0.0
 70
     0
  0
VERTEX
  8
Gemeinde
 10
679150.000
 20
240500.000
 30
0.0
 70
     0
  0
VERTEX
  8
Gemeinde
 10
679107.000
 20
240555.000
 30
0.0
 70
     0
  0
VERTEX
  8
Gemeinde
 10
679030.000
 20
240595.000
 30
0.0
 70
     0
  0
VERTEX
  8
Gemeinde
 10
679000.000
 20
240587.000
 30
0.0
 70
     0
  0
VERTEX
  8
Gemeinde
 10
678947.000
 20
240497.000
 30
0.0
 70
     0
  0
VERTEX
  8
Gemeinde
 10
678922.000
 20
240430.000
 30
0.0
 70
     0
  0
VERTEX
  8
Gemeinde
 10
678900.000
 20
240407.000
 30
0.0
 70
     0
  0
VERTEX
  8
Gemeinde
 10
678890.000
 20
240362.000
 30
0.0
 70
     0
  0
VERTEX
  8
Gemeinde
 10
678905.000
 20
240322.000
 30
0.0
 70
     0
  0
VERTEX
  8
Gemeinde
 10
678857.000
 20
240262.000
 30
0.0
 70
     0
  0
VERTEX
  8
Gemeinde
 10
678842.000
 20
240220.000
 30
0.0
 70
     0
  0
VERTEX
  8
Gemeinde
 10
678845.000
 20
240187.000
 30
0.0
 70
     0
  0
VERTEX
  8
Gemeinde
 10
678885.000
 20
240092.000
 30
0.0
 70
     0
  0
VERTEX
  8
Gemeinde
 10
678882.000
 20
240050.000
 30
0.0
 70
     0
  0
VERTEX
  8
Gemeinde
 10
678862.000
 20
239985.000
 30
0.0
 70
     0
  0
VERTEX
  8
Gemeinde
 10
678842.000
 20
239957.000
 30
0.0
 70
     0
  0
VERTEX
  8
Gemeinde
 10
678837.000
 20
239872.000
 30
0.0
 70
     0
  0
VERTEX
  8
Gemeinde
 10
678842.000
 20
239857.000
 30
0.0
 70
     0
  0
VERTEX
  8
Gemeinde
 10
678825.000
 20
239815.000
 30
0.0
 70
     0
  0
VERTEX
  8
Gemeinde
 10
678802.000
 20
239785.000
 30
0.0
 70
     0
  0
VERTEX
  8
Gemeinde
 10
678787.000
 20
239750.000
 30
0.0
 70
     0
  0
VERTEX
  8
Gemeinde
 10
678777.000
 20
239702.000
 30
0.0
 70
     0
  0
VERTEX
  8
Gemeinde
 10
678795.000
 20
239672.000
 30
0.0
 70
     0
  0
VERTEX
  8
Gemeinde
 10
678800.000
 20
239632.000
 30
0.0
 70
     0
  0
VERTEX
  8
Gemeinde
 10
678782.000
 20
239557.000
 30
0.0
 70
     0
  0
VERTEX
  8
Gemeinde
 10
678785.000
 20
239507.000
 30
0.0
 70
     0
  0
VERTEX
  8
Gemeinde
 10
678782.000
 20
239450.000
 30
0.0
 70
     0
  0
VERTEX
  8
Gemeinde
 10
678800.000
 20
239420.000
 30
0.0
 70
     0
  0
VERTEX
  8
Gemeinde
 10
678812.000
 20
239375.000
 30
0.0
 70
     0
  0
VERTEX
  8
Gemeinde
 10
678825.000
 20
239357.000
 30
0.0
 70
     0
  0
VERTEX
  8
Gemeinde
 10
678877.000
 20
239345.000
 30
0.0
 70
     0
  0
VERTEX
  8
Gemeinde
 10
678965.000
 20
239270.000
 30
0.0
 70
     0
  0
VERTEX
  8
Gemeinde
 10
679000.000
 20
239227.000
 30
0.0
 70
     0
  0
VERTEX
  8
Gemeinde
 10
679052.000
 20
239112.000
 30
0.0
 70
     0
  0
VERTEX
  8
Gemeinde
 10
679010.000
 20
239042.000
 30
0.0
 70
     0
  0
VERTEX
  8
Gemeinde
 10
678970.000
 20
239005.000
 30
0.0
 70
     0
  0
SEQEND
  0
POLYLINE
  8
Gemeinde
 66
     1
 70
     0
  0
VERTEX
  8
Gemeinde
 10
682585.000
 20
239427.000
 30
0.0
 70
     0
  0
VERTEX
  8
Gemeinde
 10
682697.000
 20
239367.000
 30
0.0
 70
     0
  0
VERTEX
  8
Gemeinde
 10
682790.000
 20
239302.000
 30
0.0
 70
     0
  0
VERTEX
  8
Gemeinde
 10
682840.000
 20
239260.000
 30
0.0
 70
     0
  0
VERTEX
  8
Gemeinde
 10
682905.000
 20
239177.000
 30
0.0
 70
     0
  0
VERTEX
  8
Gemeinde
 10
683052.000
 20
238982.000
 30
0.0
 70
     0
  0
VERTEX
  8
Gemeinde
 10
683210.000
 20
238830.000
 30
0.0
 70
     0
  0
VERTEX
  8
Gemeinde
 10
683295.000
 20
238770.000
 30
0.0
 70
     0
  0
VERTEX
  8
Gemeinde
 10
683415.000
 20
238702.000
 30
0.0
 70
     0
  0
VERTEX
  8
Gemeinde
 10
683452.000
 20
238677.000
 30
0.0
 70
     0
  0
VERTEX
  8
Gemeinde
 10
683482.000
 20
238650.000
 30
0.0
 70
     0
  0
SEQEND
  0
POLYLINE
  8
Gemeinde
 66
     1
 70
     0
  0
VERTEX
  8
Gemeinde
 10
678970.000
 20
239005.000
 30
0.0
 70
     0
  0
VERTEX
  8
Gemeinde
 10
678950.000
 20
238995.000
 30
0.0
 70
     0
  0
VERTEX
  8
Gemeinde
 10
678915.000
 20
238992.000
 30
0.0
 70
     0
  0
VERTEX
  8
Gemeinde
 10
678890.000
 20
238960.000
 30
0.0
 70
     0
  0
VERTEX
  8
Gemeinde
 10
678855.000
 20
238962.000
 30
0.0
 70
     0
  0
VERTEX
  8
Gemeinde
 10
678822.000
 20
238890.000
 30
0.0
 70
     0
  0
VERTEX
  8
Gemeinde
 10
678827.000
 20
238852.000
 30
0.0
 70
     0
  0
VERTEX
  8
Gemeinde
 10
678822.000
 20
238767.000
 30
0.0
 70
     0
  0
VERTEX
  8
Gemeinde
 10
678735.000
 20
238780.000
 30
0.0
 70
     0
  0
VERTEX
  8
Gemeinde
 10
678705.000
 20
238722.000
 30
0.0
 70
     0
  0
VERTEX
  8
Gemeinde
 10
678645.000
 20
238692.000
 30
0.0
 70
     0
  0
VERTEX
  8
Gemeinde
 10
678612.000
 20
238655.000
 30
0.0
 70
     0
  0
VERTEX
  8
Gemeinde
 10
678545.000
 20
238620.000
 30
0.0
 70
     0
  0
VERTEX
  8
Gemeinde
 10
678520.000
 20
238545.000
 30
0.0
 70
     0
  0
SEQEND
  0
POLYLINE
  8
Gemeinde
 66
     1
 70
     0
  0
VERTEX
  8
Gemeinde
 10
678520.000
 20
238545.000
 30
0.0
 70
     0
  0
VERTEX
  8
Gemeinde
 10
678527.000
 20
238412.000
 30
0.0
 70
     0
  0
VERTEX
  8
Gemeinde
 10
678562.000
 20
238112.000
 30
0.0
 70
     0
  0
VERTEX
  8
Gemeinde
 10
678565.000
 20
238072.000
 30
0.0
 70
     0
  0
SEQEND
  0
POLYLINE
  8
Bezirk
 66
     1
 70
     0
  0
VERTEX
  8
Bezirk
 10
680477.000
 20
241585.000
 30
0.0
 70
     0
  0
VERTEX
  8
Bezirk
 10
680490.000
 20
241547.000
 30
0.0
 70
     0
  0
VERTEX
  8
Bezirk
 10
680492.000
 20
241512.000
 30
0.0
 70
     0
  0
VERTEX
  8
Bezirk
 10
680512.000
 20
241480.000
 30
0.0
 70
     0
  0
VERTEX
  8
Bezirk
 10
680537.000
 20
241450.000
 30
0.0
 70
     0
  0
VERTEX
  8
Bezirk
 10
680542.000
 20
241410.000
 30
0.0
 70
     0
  0
VERTEX
  8
Bezirk
 10
680522.000
 20
241370.000
 30
0.0
 70
     0
  0
VERTEX
  8
Bezirk
 10
680530.000
 20
241312.000
 30
0.0
 70
     0
  0
VERTEX
  8
Bezirk
 10
680555.000
 20
241255.000
 30
0.0
 70
     0
  0
VERTEX
  8
Bezirk
 10
680572.000
 20
241222.000
 30
0.0
 70
     0
  0
VERTEX
  8
Bezirk
 10
680617.000
 20
241185.000
 30
0.0
 70
     0
  0
VERTEX
  8
Bezirk
 10
680632.000
 20
241132.000
 30
0.0
 70
     0
  0
VERTEX
  8
Bezirk
 10
680637.000
 20
241107.000
 30
0.0
 70
     0
  0
VERTEX
  8
Bezirk
 10
680660.000
 20
241067.000
 30
0.0
 70
     0
  0
VERTEX
  8
Bezirk
 10
680655.000
 20
241042.000
 30
0.0
 70
     0
  0
VERTEX
  8
Bezirk
 10
680685.000
 20
241000.000
 30
0.0
 70
     0
  0
VERTEX
  8
Bezirk
 10
680700.000
 20
240987.000
 30
0.0
 70
     0
  0
VERTEX
  8
Bezirk
 10
680710.000
 20
240942.000
 30
0.0
 70
     0
  0
VERTEX
  8
Bezirk
 10
680717.000
 20
240847.000
 30
0.0
 70
     0
  0
VERTEX
  8
Bezirk
 10
680725.000
 20
240805.000
 30
0.0
 70
     0
  0
VERTEX
  8
Bezirk
 10
680720.000
 20
240757.000
 30
0.0
 70
     0
  0
VERTEX
  8
Bezirk
 10
680732.000
 20
240670.000
 30
0.0
 70
     0
  0
VERTEX
  8
Bezirk
 10
680755.000
 20
240637.000
 30
0.0
 70
     0
  0
VERTEX
  8
Bezirk
 10
680767.000
 20
240600.000
 30
0.0
 70
     0
  0
VERTEX
  8
Bezirk
 10
680792.000
 20
240595.000
 30
0.0
 70
     0
  0
VERTEX
  8
Bezirk
 10
680817.000
 20
240535.000
 30
0.0
 70
     0
  0
VERTEX
  8
Bezirk
 10
680815.000
 20
240502.000
 30
0.0
 70
     0
  0
VERTEX
  8
Bezirk
 10
680840.000
 20
240467.000
 30
0.0
 70
     0
  0
VERTEX
  8
Bezirk
 10
680862.000
 20
240445.000
 30
0.0
 70
     0
  0
VERTEX
  8
Bezirk
 10
680920.000
 20
240405.000
 30
0.0
 70
     0
  0
VERTEX
  8
Bezirk
 10
680952.000
 20
240365.000
 30
0.0
 70
     0
  0
VERTEX
  8
Bezirk
 10
680987.000
 20
240332.000
 30
0.0
 70
     0
  0
VERTEX
  8
Bezirk
 10
681017.000
 20
240317.000
 30
0.0
 70
     0
  0
VERTEX
  8
Bezirk
 10
681005.000
 20
240267.000
 30
0.0
 70
     0
  0
VERTEX
  8
Bezirk
 10
681005.000
 20
240247.000
 30
0.0
 70
     0
  0
VERTEX
  8
Bezirk
 10
680985.000
 20
240202.000
 30
0.0
 70
     0
  0
VERTEX
  8
Bezirk
 10
680987.000
 20
240187.000
 30
0.0
 70
     0
  0
VERTEX
  8
Bezirk
 10
680947.000
 20
240155.000
 30
0.0
 70
     0
  0
VERTEX
  8
Bezirk
 10
680925.000
 20
240085.000
 30
0.0
 70
     0
  0
VERTEX
  8
Bezirk
 10
680897.000
 20
240057.000
 30
0.0
 70
     0
  0
VERTEX
  8
Bezirk
 10
680855.000
 20
239997.000
 30
0.0
 70
     0
  0
VERTEX
  8
Bezirk
 10
680807.000
 20
239955.000
 30
0.0
 70
     0
  0
VERTEX
  8
Bezirk
 10
680820.000
 20
239870.000
 30
0.0
 70
     0
  0
VERTEX
  8
Bezirk
 10
680837.000
 20
239842.000
 30
0.0
 70
     0
  0
VERTEX
  8
Bezirk
 10
680857.000
 20
239732.000
 30
0.0
 70
     0
  0
VERTEX
  8
Bezirk
 10
680895.000
 20
239682.000
 30
0.0
 70
     0
  0
VERTEX
  8
Bezirk
 10
680915.000
 20
239667.000
 30
0.0
 70
     0
  0
VERTEX
  8
Bezirk
 10
680920.000
 20
239645.000
 30
0.0
 70
     0
  0
VERTEX
  8
Bezirk
 10
680937.000
 20
239625.000
 30
0.0
 70
     0
  0
VERTEX
  8
Bezirk
 10
680925.000
 20
239602.000
 30
0.0
 70
     0
  0
VERTEX
  8
Bezirk
 10
680917.000
 20
239597.000
 30
0.0
 70
     0
  0
VERTEX
  8
Bezirk
 10
680915.000
 20
239572.000
 30
0.0
 70
     0
  0
VERTEX
  8
Bezirk
 10
680922.000
 20
239550.000
 30
0.0
 70
     0
  0
VERTEX
  8
Bezirk
 10
680905.000
 20
239502.000
 30
0.0
 70
     0
  0
VERTEX
  8
Bezirk
 10
680910.000
 20
239470.000
 30
0.0
 70
     0
  0
VERTEX
  8
Bezirk
 10
680925.000
 20
239452.000
 30
0.0
 70
     0
  0
VERTEX
  8
Bezirk
 10
680852.000
 20
239392.000
 30
0.0
 70
     0
  0
VERTEX
  8
Bezirk
 10
680800.000
 20
239370.000
 30
0.0
 70
     0
  0
VERTEX
  8
Bezirk
 10
680787.000
 20
239347.000
 30
0.0
 70
     0
  0
VERTEX
  8
Bezirk
 10
680782.000
 20
239305.000
 30
0.0
 70
     0
  0
VERTEX
  8
Bezirk
 10
680772.000
 20
239270.000
 30
0.0
 70
     0
  0
VERTEX
  8
Bezirk
 10
680772.000
 20
239245.000
 30
0.0
 70
     0
  0
VERTEX
  8
Bezirk
 10
680785.000
 20
239180.000
 30
0.0
 70
     0
  0
VERTEX
  8
Bezirk
 10
680797.000
 20
239155.000
 30
0.0
 70
     0
  0
VERTEX
  8
Bezirk
 10
680815.000
 20
239100.000
 30
0.0
 70
     0
  0
VERTEX
  8
Bezirk
 10
680845.000
 20
239067.000
 30
0.0
 70
     0
  0
VERTEX
  8
Bezirk
 10
680857.000
 20
239050.000
 30
0.0
 70
     0
  0
VERTEX
  8
Bezirk
 10
680872.000
 20
239015.000
 30
0.0
 70
     0
  0
VERTEX
  8
Bezirk
 10
680942.000
 20
238975.000
 30
0.0
 70
     0
  0
VERTEX
  8
Bezirk
 10
680900.000
 20
238917.000
 30
0.0
 70
     0
  0
VERTEX
  8
Bezirk
 10
680900.000
 20
238872.000
 30
0.0
 70
     0
  0
VERTEX
  8
Bezirk
 10
680925.000
 20
238835.000
 30
0.0
 70
     0
  0
VERTEX
  8
Bezirk
 10
680990.000
 20
238782.000
 30
0.0
 70
     0
  0
VERTEX
  8
Bezirk
 10
681020.000
 20
238685.000
 30
0.0
 70
     0
  0
VERTEX
  8
Bezirk
 10
680980.000
 20
238692.000
 30
0.0
 70
     0
  0
VERTEX
  8
Bezirk
 10
680905.000
 20
238685.000
 30
0.0
 70
     0
  0
VERTEX
  8
Bezirk
 10
680925.000
 20
238640.000
 30
0.0
 70
     0
  0
VERTEX
  8
Bezirk
 10
680925.000
 20
238595.000
 30
0.0
 70
     0
  0
VERTEX
  8
Bezirk
 10
680935.000
 20
238482.000
 30
0.0
 70
     0
  0
VERTEX
  8
Bezirk
 10
680947.000
 20
238457.000
 30
0.0
 70
     0
  0
VERTEX
  8
Bezirk
 10
680975.000
 20
238430.000
 30
0.0
 70
     0
  0
VERTEX
  8
Bezirk
 10
680987.000
 20
238387.000
 30
0.0
 70
     0
  0
VERTEX
  8
Bezirk
 10
681015.000
 20
238345.000
 30
0.0
 70
     0
  0
VERTEX
  8
Bezirk
 10
680995.000
 20
238320.000
 30
0.0
 70
     0
  0
VERTEX
  8
Bezirk
 10
680990.000
 20
238302.000
 30
0.0
 70
     0
  0
VERTEX
  8
Bezirk
 10
680957.000
 20
238275.000
 30
0.0
 70
     0
  0
VERTEX
  8
Bezirk
 10
680957.000
 20
238262.000
 30
0.0
 70
     0
  0
VERTEX
  8
Bezirk
 10
680977.000
 20
238235.000
 30
0.0
 70
     0
  0
VERTEX
  8
Bezirk
 10
680997.000
 20
238172.000
 30
0.0
 70
     0
  0
VERTEX
  8
Bezirk
 10
680990.000
 20
238077.000
 30
0.0
 70
     0
  0
VERTEX
  8
Bezirk
 10
681000.000
 20
237932.000
 30
0.0
 70
     0
  0
SEQEND
  0
POLYLINE
  8
Gemeinde
 66
     1
 70
     0
  0
VERTEX
  8
Gemeinde
 10
682585.000
 20
239427.000
 30
0.0
 70
     0
  0
VERTEX
  8
Gemeinde
 10
682545.000
 20
239382.000
 30
0.0
 70
     0
  0
VERTEX
  8
Gemeinde
 10
682525.000
 20
239372.000
 30
0.0
 70
     0
  0
VERTEX
  8
Gemeinde
 10
682515.000
 20
239347.000
 30
0.0
 70
     0
  0
VERTEX
  8
Gemeinde
 10
682492.000
 20
239327.000
 30
0.0
 70
     0
  0
VERTEX
  8
Gemeinde
 10
682467.000
 20
239317.000
 30
0.0
 70
     0
  0
VERTEX
  8
Gemeinde
 10
682457.000
 20
239300.000
 30
0.0
 70
     0
  0
VERTEX
  8
Gemeinde
 10
682440.000
 20
239287.000
 30
0.0
 70
     0
  0
VERTEX
  8
Gemeinde
 10
682400.000
 20
239292.000
 30
0.0
 70
     0
  0
VERTEX
  8
Gemeinde
 10
682400.000
 20
239280.000
 30
0.0
 70
     0
  0
VERTEX
  8
Gemeinde
 10
682390.000
 20
239265.000
 30
0.0
 70
     0
  0
VERTEX
  8
Gemeinde
 10
682370.000
 20
239282.000
 30
0.0
 70
     0
  0
VERTEX
  8
Gemeinde
 10
682327.000
 20
239297.000
 30
0.0
 70
     0
  0
VERTEX
  8
Gemeinde
 10
682310.000
 20
239285.000
 30
0.0
 70
     0
  0
VERTEX
  8
Gemeinde
 10
682312.000
 20
239260.000
 30
0.0
 70
     0
  0
VERTEX
  8
Gemeinde
 10
682300.000
 20
239235.000
 30
0.0
 70
     0
  0
VERTEX
  8
Gemeinde
 10
682295.000
 20
239197.000
 30
0.0
 70
     0
  0
VERTEX
  8
Gemeinde
 10
682245.000
 20
239152.000
 30
0.0
 70
     0
  0
VERTEX
  8
Gemeinde
 10
682245.000
 20
239107.000
 30
0.0
 70
     0
  0
VERTEX
  8
Gemeinde
 10
682255.000
 20
239082.000
 30
0.0
 70
     0
  0
VERTEX
  8
Gemeinde
 10
682250.000
 20
239050.000
 30
0.0
 70
     0
  0
VERTEX
  8
Gemeinde
 10
682237.000
 20
239037.000
 30
0.0
 70
     0
  0
VERTEX
  8
Gemeinde
 10
682240.000
 20
239027.000
 30
0.0
 70
     0
  0
VERTEX
  8
Gemeinde
 10
682250.000
 20
239015.000
 30
0.0
 70
     0
  0
VERTEX
  8
Gemeinde
 10
682240.000
 20
238965.000
 30
0.0
 70
     0
  0
VERTEX
  8
Gemeinde
 10
682252.000
 20
238950.000
 30
0.0
 70
     0
  0
VERTEX
  8
Gemeinde
 10
682252.000
 20
238930.000
 30
0.0
 70
     0
  0
VERTEX
  8
Gemeinde
 10
682205.000
 20
238875.000
 30
0.0
 70
     0
  0
VERTEX
  8
Gemeinde
 10
682200.000
 20
238855.000
 30
0.0
 70
     0
  0
VERTEX
  8
Gemeinde
 10
682197.000
 20
238785.000
 30
0.0
 70
     0
  0
VERTEX
  8
Gemeinde
 10
682160.000
 20
238747.000
 30
0.0
 70
     0
  0
VERTEX
  8
Gemeinde
 10
682150.000
 20
238720.000
 30
0.0
 70
     0
  0
VERTEX
  8
Gemeinde
 10
682147.000
 20
238665.000
 30
0.0
 70
     0
  0
VERTEX
  8
Gemeinde
 10
682140.000
 20
238632.000
 30
0.0
 70
     0
  0
VERTEX
  8
Gemeinde
 10
682102.000
 20
238550.000
 30
0.0
 70
     0
  0
VERTEX
  8
Gemeinde
 10
682055.000
 20
238492.000
 30
0.0
 70
     0
  0
VERTEX
  8
Gemeinde
 10
682017.000
 20
238480.000
 30
0.0
 70
     0
  0
VERTEX
  8
Gemeinde
 10
681987.000
 20
238452.000
 30
0.0
 70
     0
  0
VERTEX
  8
Gemeinde
 10
681967.000
 20
238440.000
 30
0.0
 70
     0
  0
VERTEX
  8
Gemeinde
 10
681952.000
 20
238425.000
 30
0.0
 70
     0
  0
VERTEX
  8
Gemeinde
 10
681925.000
 20
238417.000
 30
0.0
 70
     0
  0
VERTEX
  8
Gemeinde
 10
681887.000
 20
238415.000
 30
0.0
 70
     0
  0
VERTEX
  8
Gemeinde
 10
681827.000
 20
238385.000
 30
0.0
 70
     0
  0
VERTEX
  8
Gemeinde
 10
681827.000
 20
238362.000
 30
0.0
 70
     0
  0
VERTEX
  8
Gemeinde
 10
681807.000
 20
238350.000
 30
0.0
 70
     0
  0
VERTEX
  8
Gemeinde
 10
681805.000
 20
238322.000
 30
0.0
 70
     0
  0
VERTEX
  8
Gemeinde
 10
681752.000
 20
238282.000
 30
0.0
 70
     0
  0
VERTEX
  8
Gemeinde
 10
681670.000
 20
238247.000
 30
0.0
 70
     0
  0
VERTEX
  8
Gemeinde
 10
681637.000
 20
238237.000
 30
0.0
 70
     0
  0
VERTEX
  8
Gemeinde
 10
681615.000
 20
238215.000
 30
0.0
 70
     0
  0
VERTEX
  8
Gemeinde
 10
681605.000
 20
238195.000
 30
0.0
 70
     0
  0
VERTEX
  8
Gemeinde
 10
681590.000
 20
238187.000
 30
0.0
 70
     0
  0
VERTEX
  8
Gemeinde
 10
681575.000
 20
238170.000
 30
0.0
 70
     0
  0
VERTEX
  8
Gemeinde
 10
681547.000
 20
238165.000
 30
0.0
 70
     0
  0
VERTEX
  8
Gemeinde
 10
681527.000
 20
238147.000
 30
0.0
 70
     0
  0
VERTEX
  8
Gemeinde
 10
681512.000
 20
238122.000
 30
0.0
 70
     0
  0
VERTEX
  8
Gemeinde
 10
681447.000
 20
238077.000
 30
0.0
 70
     0
  0
VERTEX
  8
Gemeinde
 10
681427.000
 20
238072.000
 30
0.0
 70
     0
  0
VERTEX
  8
Gemeinde
 10
681412.000
 20
238062.000
 30
0.0
 70
     0
  0
VERTEX
  8
Gemeinde
 10
681397.000
 20
238040.000
 30
0.0
 70
     0
  0
VERTEX
  8
Gemeinde
 10
681350.000
 20
238005.000
 30
0.0
 70
     0
  0
VERTEX
  8
Gemeinde
 10
681350.000
 20
237990.000
 30
0.0
 70
     0
  0
VERTEX
  8
Gemeinde
 10
681332.000
 20
237960.000
 30
0.0
 70
     0
  0
VERTEX
  8
Gemeinde
 10
681317.000
 20
237920.000
 30
0.0
 70
     0
  0
VERTEX
  8
Gemeinde
 10
681300.000
 20
237825.000
 30
0.0
 70
     0
  0
VERTEX
  8
Gemeinde
 10
681282.000
 20
237820.000
 30
0.0
 70
     0
  0
VERTEX
  8
Gemeinde
 10
681257.000
 20
237845.000
 30
0.0
 70
     0
  0
VERTEX
  8
Gemeinde
 10
681245.000
 20
237870.000
 30
0.0
 70
     0
  0
VERTEX
  8
Gemeinde
 10
681197.000
 20
237897.000
 30
0.0
 70
     0
  0
VERTEX
  8
Gemeinde
 10
681180.000
 20
237950.000
 30
0.0
 70
     0
  0
VERTEX
  8
Gemeinde
 10
681125.000
 20
237957.000
 30
0.0
 70
     0
  0
VERTEX
  8
Gemeinde
 10
681030.000
 20
237942.000
 30
0.0
 70
     0
  0
VERTEX
  8
Gemeinde
 10
681000.000
 20
237932.000
 30
0.0
 70
     0
  0
SEQEND
  0
POLYLINE
  8
Bezirk
 66
     1
 70
     0
  0
VERTEX
  8
Bezirk
 10
681000.000
 20
237932.000
 30
0.0
 70
     0
  0
VERTEX
  8
Bezirk
 10
680802.000
 20
237767.000
 30
0.0
 70
     0
  0
SEQEND
  0
POLYLINE
  8
Gemeinde
 66
     1
 70
     0
  0
VERTEX
  8
Gemeinde
 10
678565.000
 20
238072.000
 30
0.0
 70
     0
  0
VERTEX
  8
Gemeinde
 10
678637.000
 20
238110.000
 30
0.0
 70
     0
  0
VERTEX
  8
Gemeinde
 10
678665.000
 20
238042.000
 30
0.0
 70
     0
  0
VERTEX
  8
Gemeinde
 10
678715.000
 20
238072.000
 30
0.0
 70
     0
  0
VERTEX
  8
Gemeinde
 10
678772.000
 20
238065.000
 30
0.0
 70
     0
  0
VERTEX
  8
Gemeinde
 10
678807.000
 20
238042.000
 30
0.0
 70
     0
  0
VERTEX
  8
Gemeinde
 10
678850.000
 20
238042.000
 30
0.0
 70
     0
  0
VERTEX
  8
Gemeinde
 10
678900.000
 20
238080.000
 30
0.0
 70
     0
  0
VERTEX
  8
Gemeinde
 10
678907.000
 20
238130.000
 30
0.0
 70
     0
  0
VERTEX
  8
Gemeinde
 10
678930.000
 20
238197.000
 30
0.0
 70
     0
  0
VERTEX
  8
Gemeinde
 10
678942.000
 20
238260.000
 30
0.0
 70
     0
  0
VERTEX
  8
Gemeinde
 10
679107.000
 20
238202.000
 30
0.0
 70
     0
  0
VERTEX
  8
Gemeinde
 10
679192.000
 20
238455.000
 30
0.0
 70
     0
  0
VERTEX
  8
Gemeinde
 10
679320.000
 20
238387.000
 30
0.0
 70
     0
  0
VERTEX
  8
Gemeinde
 10
679350.000
 20
238442.000
 30
0.0
 70
     0
  0
VERTEX
  8
Gemeinde
 10
679380.000
 20
238480.000
 30
0.0
 70
     0
  0
VERTEX
  8
Gemeinde
 10
679400.000
 20
238492.000
 30
0.0
 70
     0
  0
VERTEX
  8
Gemeinde
 10
679407.000
 20
238540.000
 30
0.0
 70
     0
  0
VERTEX
  8
Gemeinde
 10
679435.000
 20
238530.000
 30
0.0
 70
     0
  0
VERTEX
  8
Gemeinde
 10
679467.000
 20
238492.000
 30
0.0
 70
     0
  0
VERTEX
  8
Gemeinde
 10
679492.000
 20
238480.000
 30
0.0
 70
     0
  0
VERTEX
  8
Gemeinde
 10
679547.000
 20
238435.000
 30
0.0
 70
     0
  0
VERTEX
  8
Gemeinde
 10
679572.000
 20
238390.000
 30
0.0
 70
     0
  0
VERTEX
  8
Gemeinde
 10
679675.000
 20
238365.000
 30
0.0
 70
     0
  0
VERTEX
  8
Gemeinde
 10
679730.000
 20
238332.000
 30
0.0
 70
     0
  0
VERTEX
  8
Gemeinde
 10
679762.000
 20
238350.000
 30
0.0
 70
     0
  0
VERTEX
  8
Gemeinde
 10
679757.000
 20
238385.000
 30
0.0
 70
     0
  0
VERTEX
  8
Gemeinde
 10
679760.000
 20
238475.000
 30
0.0
 70
     0
  0
VERTEX
  8
Gemeinde
 10
679757.000
 20
238500.000
 30
0.0
 70
     0
  0
VERTEX
  8
Gemeinde
 10
679827.000
 20
238400.000
 30
0.0
 70
     0
  0
VERTEX
  8
Gemeinde
 10
679855.000
 20
238392.000
 30
0.0
 70
     0
  0
VERTEX
  8
Gemeinde
 10
679922.000
 20
238352.000
 30
0.0
 70
     0
  0
VERTEX
  8
Gemeinde
 10
679925.000
 20
238272.000
 30
0.0
 70
     0
  0
VERTEX
  8
Gemeinde
 10
679957.000
 20
238252.000
 30
0.0
 70
     0
  0
VERTEX
  8
Gemeinde
 10
679967.000
 20
238237.000
 30
0.0
 70
     0
  0
VERTEX
  8
Gemeinde
 10
679980.000
 20
238200.000
 30
0.0
 70
     0
  0
VERTEX
  8
Gemeinde
 10
680015.000
 20
238142.000
 30
0.0
 70
     0
  0
VERTEX
  8
Gemeinde
 10
680062.000
 20
238102.000
 30
0.0
 70
     0
  0
VERTEX
  8
Gemeinde
 10
680072.000
 20
238080.000
 30
0.0
 70
     0
  0
VERTEX
  8
Gemeinde
 10
680107.000
 20
238062.000
 30
0.0
 70
     0
  0
VERTEX
  8
Gemeinde
 10
680172.000
 20
237997.000
 30
0.0
 70
     0
  0
VERTEX
  8
Gemeinde
 10
680232.000
 20
237992.000
 30
0.0
 70
     0
  0
VERTEX
  8
Gemeinde
 10
680297.000
 20
237942.000
 30
0.0
 70
     0
  0
VERTEX
  8
Gemeinde
 10
680330.000
 20
237942.000
 30
0.0
 70
     0
  0
VERTEX
  8
Gemeinde
 10
680405.000
 20
237875.000
 30
0.0
 70
     0
  0
VERTEX
  8
Gemeinde
 10
680452.000
 20
237805.000
 30
0.0
 70
     0
  0
VERTEX
  8
Gemeinde
 10
680480.000
 20
237795.000
 30
0.0
 70
     0
  0
VERTEX
  8
Gemeinde
 10
680535.000
 20
237742.000
 30
0.0
 70
     0
  0
VERTEX
  8
Gemeinde
 10
680572.000
 20
237747.000
 30
0.0
 70
     0
  0
VERTEX
  8
Gemeinde
 10
680590.000
 20
237762.000
 30
0.0
 70
     0
  0
VERTEX
  8
Gemeinde
 10
680750.000
 20
237807.000
 30
0.0
 70
     0
  0
VERTEX
  8
Gemeinde
 10
680767.000
 20
237775.000
 30
0.0
 70
     0
  0
VERTEX
  8
Gemeinde
 10
680802.000
 20
237767.000
 30
0.0
 70
     0
  0
SEQEND
  0
POLYLINE
  8
Gemeinde
 66
     1
 70
     0
  0
VERTEX
  8
Gemeinde
 10
683482.000
 20
238650.000
 30
0.0
 70
     0
  0
VERTEX
  8
Gemeinde
 10
683497.000
 20
238630.000
 30
0.0
 70
     0
  0
VERTEX
  8
Gemeinde
 10
683515.000
 20
238580.000
 30
0.0
 70
     0
  0
VERTEX
  8
Gemeinde
 10
683520.000
 20
238537.000
 30
0.0
 70
     0
  0
VERTEX
  8
Gemeinde
 10
683545.000
 20
238447.000
 30
0.0
 70
     0
  0
VERTEX
  8
Gemeinde
 10
683605.000
 20
238307.000
 30
0.0
 70
     0
  0
VERTEX
  8
Gemeinde
 10
683632.000
 20
238270.000
 30
0.0
 70
     0
  0
VERTEX
  8
Gemeinde
 10
683680.000
 20
238170.000
 30
0.0
 70
     0
  0
VERTEX
  8
Gemeinde
 10
683702.000
 20
238085.000
 30
0.0
 70
     0
  0
VERTEX
  8
Gemeinde
 10
683715.000
 20
237952.000
 30
0.0
 70
     0
  0
VERTEX
  8
Gemeinde
 10
683720.000
 20
237847.000
 30
0.0
 70
     0
  0
VERTEX
  8
Gemeinde
 10
683717.000
 20
237805.000
 30
0.0
 70
     0
  0
VERTEX
  8
Gemeinde
 10
683687.000
 20
237715.000
 30
0.0
 70
     0
  0
VERTEX
  8
Gemeinde
 10
683647.000
 20
237632.000
 30
0.0
 70
     0
  0
VERTEX
  8
Gemeinde
 10
683627.000
 20
237600.000
 30
0.0
 70
     0
  0
VERTEX
  8
Gemeinde
 10
683592.000
 20
237567.000
 30
0.0
 70
     0
  0
VERTEX
  8
Gemeinde
 10
683545.000
 20
237532.000
 30
0.0
 70
     0
  0
VERTEX
  8
Gemeinde
 10
683532.000
 20
237515.000
 30
0.0
 70
     0
  0
VERTEX
  8
Gemeinde
 10
683525.000
 20
237485.000
 30
0.0
 70
     0
  0
VERTEX
  8
Gemeinde
 10
683532.000
 20
237442.000
 30
0.0
 70
     0
  0
VERTEX
  8
Gemeinde
 10
683565.000
 20
237395.000
 30
0.0
 70
     0
  0
VERTEX
  8
Gemeinde
 10
683680.000
 20
237352.000
 30
0.0
 70
     0
  0
VERTEX
  8
Gemeinde
 10
683750.000
 20
237302.000
 30
0.0
 70
     0
  0
VERTEX
  8
Gemeinde
 10
683800.000
 20
237240.000
 30
0.0
 70
     0
  0
VERTEX
  8
Gemeinde
 10
683820.000
 20
237210.000
 30
0.0
 70
     0
  0
VERTEX
  8
Gemeinde
 10
683847.000
 20
237187.000
 30
0.0
 70
     0
  0
VERTEX
  8
Gemeinde
 10
683880.000
 20
237150.000
 30
0.0
 70
     0
  0
VERTEX
  8
Gemeinde
 10
683955.000
 20
237090.000
 30
0.0
 70
     0
  0
VERTEX
  8
Gemeinde
 10
683995.000
 20
237067.000
 30
0.0
 70
     0
  0
VERTEX
  8
Gemeinde
 10
684120.000
 20
237022.000
 30
0.0
 70
     0
  0
VERTEX
  8
Gemeinde
 10
684150.000
 20
237000.000
 30
0.0
 70
     0
  0
VERTEX
  8
Gemeinde
 10
684177.000
 20
236967.000
 30
0.0
 70
     0
  0
VERTEX
  8
Gemeinde
 10
684192.000
 20
236930.000
 30
0.0
 70
     0
  0
VERTEX
  8
Gemeinde
 10
684187.000
 20
236882.000
 30
0.0
 70
     0
  0
VERTEX
  8
Gemeinde
 10
684155.000
 20
236800.000
 30
0.0
 70
     0
  0
VERTEX
  8
Gemeinde
 10
684137.000
 20
236742.000
 30
0.0
 70
     0
  0
VERTEX
  8
Gemeinde
 10
684105.000
 20
236677.000
 30
0.0
 70
     0
  0
VERTEX
  8
Gemeinde
 10
684072.000
 20
236577.000
 30
0.0
 70
     0
  0
VERTEX
  8
Gemeinde
 10
684062.000
 20
236542.000
 30
0.0
 70
     0
  0
VERTEX
  8
Gemeinde
 10
684055.000
 20
236495.000
 30
0.0
 70
     0
  0
VERTEX
  8
Gemeinde
 10
684060.000
 20
236450.000
 30
0.0
 70
     0
  0
VERTEX
  8
Gemeinde
 10
684110.000
 20
236377.000
 30
0.0
 70
     0
  0
VERTEX
  8
Gemeinde
 10
684142.000
 20
236365.000
 30
0.0
 70
     0
  0
VERTEX
  8
Gemeinde
 10
684155.000
 20
236365.000
 30
0.0
 70
     0
  0
SEQEND
  0
POLYLINE
  8
Bezirk
 66
     1
 70
     0
  0
VERTEX
  8
Bezirk
 10
680802.000
 20
237767.000
 30
0.0
 70
     0
  0
VERTEX
  8
Bezirk
 10
680925.000
 20
237650.000
 30
0.0
 70
     0
  0
VERTEX
  8
Bezirk
 10
680995.000
 20
237547.000
 30
0.0
 70
     0
  0
VERTEX
  8
Bezirk
 10
681030.000
 20
237505.000
 30
0.0
 70
     0
  0
VERTEX
  8
Bezirk
 10
681070.000
 20
237477.000
 30
0.0
 70
     0
  0
VERTEX
  8
Bezirk
 10
681080.000
 20
237435.000
 30
0.0
 70
     0
  0
VERTEX
  8
Bezirk
 10
681155.000
 20
237447.000
 30
0.0
 70
     0
  0
VERTEX
  8
Bezirk
 10
681147.000
 20
237392.000
 30
0.0
 70
     0
  0
VERTEX
  8
Bezirk
 10
681132.000
 20
237350.000
 30
0.0
 70
     0
  0
VERTEX
  8
Bezirk
 10
681142.000
 20
237250.000
 30
0.0
 70
     0
  0
VERTEX
  8
Bezirk
 10
681135.000
 20
237210.000
 30
0.0
 70
     0
  0
VERTEX
  8
Bezirk
 10
681142.000
 20
237202.000
 30
0.0
 70
     0
  0
VERTEX
  8
Bezirk
 10
681142.000
 20
237185.000
 30
0.0
 70
     0
  0
VERTEX
  8
Bezirk
 10
681067.000
 20
237172.000
 30
0.0
 70
     0
  0
VERTEX
  8
Bezirk
 10
681075.000
 20
237155.000
 30
0.0
 70
     0
  0
VERTEX
  8
Bezirk
 10
681072.000
 20
237130.000
 30
0.0
 70
     0
  0
VERTEX
  8
Bezirk
 10
681130.000
 20
237060.000
 30
0.0
 70
     0
  0
VERTEX
  8
Bezirk
 10
681122.000
 20
237032.000
 30
0.0
 70
     0
  0
VERTEX
  8
Bezirk
 10
681080.000
 20
236957.000
 30
0.0
 70
     0
  0
VERTEX
  8
Bezirk
 10
681047.000
 20
236957.000
 30
0.0
 70
     0
  0
VERTEX
  8
Bezirk
 10
681030.000
 20
236950.000
 30
0.0
 70
     0
  0
VERTEX
  8
Bezirk
 10
681002.000
 20
236920.000
 30
0.0
 70
     0
  0
VERTEX
  8
Bezirk
 10
680970.000
 20
236917.000
 30
0.0
 70
     0
  0
VERTEX
  8
Bezirk
 10
680945.000
 20
236892.000
 30
0.0
 70
     0
  0
VERTEX
  8
Bezirk
 10
680922.000
 20
236880.000
 30
0.0
 70
     0
  0
VERTEX
  8
Bezirk
 10
680995.000
 20
236825.000
 30
0.0
 70
     0
  0
VERTEX
  8
Bezirk
 10
681050.000
 20
236772.000
 30
0.0
 70
     0
  0
VERTEX
  8
Bezirk
 10
681037.000
 20
236692.000
 30
0.0
 70
     0
  0
VERTEX
  8
Bezirk
 10
681027.000
 20
236647.000
 30
0.0
 70
     0
  0
VERTEX
  8
Bezirk
 10
681002.000
 20
236590.000
 30
0.0
 70
     0
  0
VERTEX
  8
Bezirk
 10
680977.000
 20
236567.000
 30
0.0
 70
     0
  0
VERTEX
  8
Bezirk
 10
680945.000
 20
236497.000
 30
0.0
 70
     0
  0
VERTEX
  8
Bezirk
 10
680892.000
 20
236457.000
 30
0.0
 70
     0
  0
VERTEX
  8
Bezirk
 10
680775.000
 20
236420.000
 30
0.0
 70
     0
  0
VERTEX
  8
Bezirk
 10
680705.000
 20
236410.000
 30
0.0
 70
     0
  0
VERTEX
  8
Bezirk
 10
680697.000
 20
236350.000
 30
0.0
 70
     0
  0
VERTEX
  8
Bezirk
 10
680610.000
 20
236347.000
 30
0.0
 70
     0
  0
SEQEND
  0
POLYLINE
  8
Gemeinde
 66
     1
 70
     0
  0
VERTEX
  8
Gemeinde
 10
678565.000
 20
238072.000
 30
0.0
 70
     0
  0
VERTEX
  8
Gemeinde
 10
678570.000
 20
238040.000
 30
0.0
 70
     0
  0
VERTEX
  8
Gemeinde
 10
678440.000
 20
237907.000
 30
0.0
 70
     0
  0
VERTEX
  8
Gemeinde
 10
678400.000
 20
237930.000
 30
0.0
 70
     0
  0
VERTEX
  8
Gemeinde
 10
678375.000
 20
237930.000
 30
0.0
 70
     0
  0
VERTEX
  8
Gemeinde
 10
678250.000
 20
237895.000
 30
0.0
 70
     0
  0
VERTEX
  8
Gemeinde
 10
678250.000
 20
237832.000
 30
0.0
 70
     0
  0
VERTEX
  8
Gemeinde
 10
678227.000
 20
237787.000
 30
0.0
 70
     0
  0
VERTEX
  8
Gemeinde
 10
678197.000
 20
237747.000
 30
0.0
 70
     0
  0
VERTEX
  8
Gemeinde
 10
678190.000
 20
237727.000
 30
0.0
 70
     0
  0
VERTEX
  8
Gemeinde
 10
678187.000
 20
237660.000
 30
0.0
 70
     0
  0
VERTEX
  8
Gemeinde
 10
678180.000
 20
237640.000
 30
0.0
 70
     0
  0
VERTEX
  8
Gemeinde
 10
678145.000
 20
237595.000
 30
0.0
 70
     0
  0
VERTEX
  8
Gemeinde
 10
678117.000
 20
237567.000
 30
0.0
 70
     0
  0
VERTEX
  8
Gemeinde
 10
678217.000
 20
237505.000
 30
0.0
 70
     0
  0
VERTEX
  8
Gemeinde
 10
678252.000
 20
237490.000
 30
0.0
 70
     0
  0
VERTEX
  8
Gemeinde
 10
678395.000
 20
237485.000
 30
0.0
 70
     0
  0
VERTEX
  8
Gemeinde
 10
678462.000
 20
237487.000
 30
0.0
 70
     0
  0
VERTEX
  8
Gemeinde
 10
678505.000
 20
237307.000
 30
0.0
 70
     0
  0
VERTEX
  8
Gemeinde
 10
678530.000
 20
237327.000
 30
0.0
 70
     0
  0
VERTEX
  8
Gemeinde
 10
678535.000
 20
237272.000
 30
0.0
 70
     0
  0
VERTEX
  8
Gemeinde
 10
678460.000
 20
237260.000
 30
0.0
 70
     0
  0
VERTEX
  8
Gemeinde
 10
678400.000
 20
237277.000
 30
0.0
 70
     0
  0
VERTEX
  8
Gemeinde
 10
678292.000
 20
237315.000
 30
0.0
 70
     0
  0
VERTEX
  8
Gemeinde
 10
678267.000
 20
237232.000
 30
0.0
 70
     0
  0
VERTEX
  8
Gemeinde
 10
678290.000
 20
237097.000
 30
0.0
 70
     0
  0
VERTEX
  8
Gemeinde
 10
678280.000
 20
237085.000
 30
0.0
 70
     0
  0
VERTEX
  8
Gemeinde
 10
678207.000
 20
237057.000
 30
0.0
 70
     0
  0
VERTEX
  8
Gemeinde
 10
678190.000
 20
237052.000
 30
0.0
 70
     0
  0
VERTEX
  8
Gemeinde
 10
678185.000
 20
237015.000
 30
0.0
 70
     0
  0
VERTEX
  8
Gemeinde
 10
678212.000
 20
236942.000
 30
0.0
 70
     0
  0
VERTEX
  8
Gemeinde
 10
678227.000
 20
236877.000
 30
0.0
 70
     0
  0
VERTEX
  8
Gemeinde
 10
678217.000
 20
236840.000
 30
0.0
 70
     0
  0
VERTEX
  8
Gemeinde
 10
678212.000
 20
236662.000
 30
0.0
 70
     0
  0
VERTEX
  8
Gemeinde
 10
678217.000
 20
236627.000
 30
0.0
 70
     0
  0
VERTEX
  8
Gemeinde
 10
678225.000
 20
236605.000
 30
0.0
 70
     0
  0
VERTEX
  8
Gemeinde
 10
678200.000
 20
236500.000
 30
0.0
 70
     0
  0
VERTEX
  8
Gemeinde
 10
678205.000
 20
236430.000
 30
0.0
 70
     0
  0
VERTEX
  8
Gemeinde
 10
678310.000
 20
236430.000
 30
0.0
 70
     0
  0
VERTEX
  8
Gemeinde
 10
678332.000
 20
236380.000
 30
0.0
 70
     0
  0
VERTEX
  8
Gemeinde
 10
678345.000
 20
236335.000
 30
0.0
 70
     0
  0
VERTEX
  8
Gemeinde
 10
678375.000
 20
236260.000
 30
0.0
 70
     0
  0
VERTEX
  8
Gemeinde
 10
678395.000
 20
236177.000
 30
0.0
 70
     0
  0
VERTEX
  8
Gemeinde
 10
678430.000
 20
236102.000
 30
0.0
 70
     0
  0
VERTEX
  8
Gemeinde
 10
678450.000
 20
236030.000
 30
0.0
 70
     0
  0
VERTEX
  8
Gemeinde
 10
678490.000
 20
235950.000
 30
0.0
 70
     0
  0
VERTEX
  8
Gemeinde
 10
678555.000
 20
235867.000
 30
0.0
 70
     0
  0
VERTEX
  8
Gemeinde
 10
678525.000
 20
235835.000
 30
0.0
 70
     0
  0
VERTEX
  8
Gemeinde
 10
678545.000
 20
235810.000
 30
0.0
 70
     0
  0
VERTEX
  8
Gemeinde
 10
678512.000
 20
235775.000
 30
0.0
 70
     0
  0
VERTEX
  8
Gemeinde
 10
678482.000
 20
235787.000
 30
0.0
 70
     0
  0
VERTEX
  8
Gemeinde
 10
678487.000
 20
235762.000
 30
0.0
 70
     0
  0
VERTEX
  8
Gemeinde
 10
678477.000
 20
235735.000
 30
0.0
 70
     0
  0
VERTEX
  8
Gemeinde
 10
678462.000
 20
235722.000
 30
0.0
 70
     0
  0
VERTEX
  8
Gemeinde
 10
678420.000
 20
235700.000
 30
0.0
 70
     0
  0
VERTEX
  8
Gemeinde
 10
678432.000
 20
235667.000
 30
0.0
 70
     0
  0
VERTEX
  8
Gemeinde
 10
678432.000
 20
235572.000
 30
0.0
 70
     0
  0
VERTEX
  8
Gemeinde
 10
678440.000
 20
235522.000
 30
0.0
 70
     0
  0
VERTEX
  8
Gemeinde
 10
678450.000
 20
235487.000
 30
0.0
 70
     0
  0
VERTEX
  8
Gemeinde
 10
678395.000
 20
235460.000
 30
0.0
 70
     0
  0
VERTEX
  8
Gemeinde
 10
678442.000
 20
235355.000
 30
0.0
 70
     0
  0
VERTEX
  8
Gemeinde
 10
678382.000
 20
235315.000
 30
0.0
 70
     0
  0
VERTEX
  8
Gemeinde
 10
678332.000
 20
235292.000
 30
0.0
 70
     0
  0
VERTEX
  8
Gemeinde
 10
678270.000
 20
235257.000
 30
0.0
 70
     0
  0
VERTEX
  8
Gemeinde
 10
678240.000
 20
235245.000
 30
0.0
 70
     0
  0
SEQEND
  0
POLYLINE
  8
Gemeinde
 66
     1
 70
     0
  0
VERTEX
  8
Gemeinde
 10
678240.000
 20
235245.000
 30
0.0
 70
     0
  0
VERTEX
  8
Gemeinde
 10
678170.000
 20
235282.000
 30
0.0
 70
     0
  0
VERTEX
  8
Gemeinde
 10
678122.000
 20
235277.000
 30
0.0
 70
     0
  0
VERTEX
  8
Gemeinde
 10
678072.000
 20
235300.000
 30
0.0
 70
     0
  0
VERTEX
  8
Gemeinde
 10
678040.000
 20
235292.000
 30
0.0
 70
     0
  0
VERTEX
  8
Gemeinde
 10
678022.000
 20
235297.000
 30
0.0
 70
     0
  0
VERTEX
  8
Gemeinde
 10
678000.000
 20
235332.000
 30
0.0
 70
     0
  0
VERTEX
  8
Gemeinde
 10
677980.000
 20
235347.000
 30
0.0
 70
     0
  0
VERTEX
  8
Gemeinde
 10
677932.000
 20
235355.000
 30
0.0
 70
     0
  0
VERTEX
  8
Gemeinde
 10
677937.000
 20
235295.000
 30
0.0
 70
     0
  0
VERTEX
  8
Gemeinde
 10
677905.000
 20
235247.000
 30
0.0
 70
     0
  0
VERTEX
  8
Gemeinde
 10
677877.000
 20
235240.000
 30
0.0
 70
     0
  0
VERTEX
  8
Gemeinde
 10
677797.000
 20
235227.000
 30
0.0
 70
     0
  0
VERTEX
  8
Gemeinde
 10
677777.000
 20
235255.000
 30
0.0
 70
     0
  0
VERTEX
  8
Gemeinde
 10
677610.000
 20
235230.000
 30
0.0
 70
     0
  0
VERTEX
  8
Gemeinde
 10
677592.000
 20
235270.000
 30
0.0
 70
     0
  0
VERTEX
  8
Gemeinde
 10
677565.000
 20
235315.000
 30
0.0
 70
     0
  0
VERTEX
  8
Gemeinde
 10
677522.000
 20
235370.000
 30
0.0
 70
     0
  0
VERTEX
  8
Gemeinde
 10
677437.000
 20
235355.000
 30
0.0
 70
     0
  0
VERTEX
  8
Gemeinde
 10
677407.000
 20
235297.000
 30
0.0
 70
     0
  0
VERTEX
  8
Gemeinde
 10
677402.000
 20
235272.000
 30
0.0
 70
     0
  0
VERTEX
  8
Gemeinde
 10
677377.000
 20
235340.000
 30
0.0
 70
     0
  0
VERTEX
  8
Gemeinde
 10
677387.000
 20
235352.000
 30
0.0
 70
     0
  0
VERTEX
  8
Gemeinde
 10
677380.000
 20
235385.000
 30
0.0
 70
     0
  0
VERTEX
  8
Gemeinde
 10
677267.000
 20
235462.000
 30
0.0
 70
     0
  0
VERTEX
  8
Gemeinde
 10
677222.000
 20
235470.000
 30
0.0
 70
     0
  0
VERTEX
  8
Gemeinde
 10
677185.000
 20
235507.000
 30
0.0
 70
     0
  0
VERTEX
  8
Gemeinde
 10
677125.000
 20
235542.000
 30
0.0
 70
     0
  0
VERTEX
  8
Gemeinde
 10
677082.000
 20
235585.000
 30
0.0
 70
     0
  0
VERTEX
  8
Gemeinde
 10
677030.000
 20
235655.000
 30
0.0
 70
     0
  0
VERTEX
  8
Gemeinde
 10
676982.000
 20
235655.000
 30
0.0
 70
     0
  0
VERTEX
  8
Gemeinde
 10
676950.000
 20
235670.000
 30
0.0
 70
     0
  0
VERTEX
  8
Gemeinde
 10
676832.000
 20
235750.000
 30
0.0
 70
     0
  0
VERTEX
  8
Gemeinde
 10
676792.000
 20
235767.000
 30
0.0
 70
     0
  0
VERTEX
  8
Gemeinde
 10
676742.000
 20
235757.000
 30
0.0
 70
     0
  0
VERTEX
  8
Gemeinde
 10
676677.000
 20
235755.000
 30
0.0
 70
     0
  0
VERTEX
  8
Gemeinde
 10
676657.000
 20
235760.000
 30
0.0
 70
     0
  0
VERTEX
  8
Gemeinde
 10
676600.000
 20
235737.000
 30
0.0
 70
     0
  0
VERTEX
  8
Gemeinde
 10
676600.000
 20
235707.000
 30
0.0
 70
     0
  0
VERTEX
  8
Gemeinde
 10
676480.000
 20
235642.000
 30
0.0
 70
     0
  0
VERTEX
  8
Gemeinde
 10
676457.000
 20
235722.000
 30
0.0
 70
     0
  0
VERTEX
  8
Gemeinde
 10
676350.000
 20
235700.000
 30
0.0
 70
     0
  0
VERTEX
  8
Gemeinde
 10
676365.000
 20
235600.000
 30
0.0
 70
     0
  0
VERTEX
  8
Gemeinde
 10
676370.000
 20
235475.000
 30
0.0
 70
     0
  0
VERTEX
  8
Gemeinde
 10
676397.000
 20
235270.000
 30
0.0
 70
     0
  0
VERTEX
  8
Gemeinde
 10
676395.000
 20
235250.000
 30
0.0
 70
     0
  0
VERTEX
  8
Gemeinde
 10
676260.000
 20
235217.000
 30
0.0
 70
     0
  0
VERTEX
  8
Gemeinde
 10
676225.000
 20
235232.000
 30
0.0
 70
     0
  0
VERTEX
  8
Gemeinde
 10
676210.000
 20
235265.000
 30
0.0
 70
     0
  0
VERTEX
  8
Gemeinde
 10
676207.000
 20
235295.000
 30
0.0
 70
     0
  0
VERTEX
  8
Gemeinde
 10
676215.000
 20
235322.000
 30
0.0
 70
     0
  0
VERTEX
  8
Gemeinde
 10
676265.000
 20
235397.000
 30
0.0
 70
     0
  0
VERTEX
  8
Gemeinde
 10
676272.000
 20
235422.000
 30
0.0
 70
     0
  0
VERTEX
  8
Gemeinde
 10
676262.000
 20
235465.000
 30
0.0
 70
     0
  0
VERTEX
  8
Gemeinde
 10
676247.000
 20
235505.000
 30
0.0
 70
     0
  0
VERTEX
  8
Gemeinde
 10
676175.000
 20
235526.000
 30
0.0
 70
     0
  0
SEQEND
  0
POLYLINE
  8
Bezirk
 66
     1
 70
     0
  0
VERTEX
  8
Bezirk
 10
680610.000
 20
236347.000
 30
0.0
 70
     0
  0
VERTEX
  8
Bezirk
 10
680607.000
 20
236317.000
 30
0.0
 70
     0
  0
VERTEX
  8
Bezirk
 10
680615.000
 20
236297.000
 30
0.0
 70
     0
  0
VERTEX
  8
Bezirk
 10
680692.000
 20
236187.000
 30
0.0
 70
     0
  0
VERTEX
  8
Bezirk
 10
680725.000
 20
236182.000
 30
0.0
 70
     0
  0
VERTEX
  8
Bezirk
 10
680757.000
 20
236212.000
 30
0.0
 70
     0
  0
VERTEX
  8
Bezirk
 10
680857.000
 20
236257.000
 30
0.0
 70
     0
  0
VERTEX
  8
Bezirk
 10
680920.000
 20
236235.000
 30
0.0
 70
     0
  0
VERTEX
  8
Bezirk
 10
680952.000
 20
236180.000
 30
0.0
 70
     0
  0
VERTEX
  8
Bezirk
 10
681035.000
 20
236152.000
 30
0.0
 70
     0
  0
VERTEX
  8
Bezirk
 10
681100.000
 20
236110.000
 30
0.0
 70
     0
  0
VERTEX
  8
Bezirk
 10
681112.000
 20
236087.000
 30
0.0
 70
     0
  0
VERTEX
  8
Bezirk
 10
681132.000
 20
236067.000
 30
0.0
 70
     0
  0
VERTEX
  8
Bezirk
 10
681150.000
 20
236030.000
 30
0.0
 70
     0
  0
VERTEX
  8
Bezirk
 10
681167.000
 20
236027.000
 30
0.0
 70
     0
  0
VERTEX
  8
Bezirk
 10
681175.000
 20
236070.000
 30
0.0
 70
     0
  0
VERTEX
  8
Bezirk
 10
681247.000
 20
236172.000
 30
0.0
 70
     0
  0
VERTEX
  8
Bezirk
 10
681312.000
 20
236255.000
 30
0.0
 70
     0
  0
VERTEX
  8
Bezirk
 10
681342.000
 20
236232.000
 30
0.0
 70
     0
  0
VERTEX
  8
Bezirk
 10
681350.000
 20
236262.000
 30
0.0
 70
     0
  0
VERTEX
  8
Bezirk
 10
681370.000
 20
236287.000
 30
0.0
 70
     0
  0
VERTEX
  8
Bezirk
 10
681365.000
 20
236302.000
 30
0.0
 70
     0
  0
VERTEX
  8
Bezirk
 10
681375.000
 20
236347.000
 30
0.0
 70
     0
  0
VERTEX
  8
Bezirk
 10
681390.000
 20
236372.000
 30
0.0
 70
     0
  0
VERTEX
  8
Bezirk
 10
681425.000
 20
236412.000
 30
0.0
 70
     0
  0
VERTEX
  8
Bezirk
 10
681485.000
 20
236410.000
 30
0.0
 70
     0
  0
VERTEX
  8
Bezirk
 10
681470.000
 20
236365.000
 30
0.0
 70
     0
  0
VERTEX
  8
Bezirk
 10
681462.000
 20
236325.000
 30
0.0
 70
     0
  0
VERTEX
  8
Bezirk
 10
681465.000
 20
236285.000
 30
0.0
 70
     0
  0
VERTEX
  8
Bezirk
 10
681495.000
 20
236200.000
 30
0.0
 70
     0
  0
VERTEX
  8
Bezirk
 10
681497.000
 20
236162.000
 30
0.0
 70
     0
  0
VERTEX
  8
Bezirk
 10
681490.000
 20
236120.000
 30
0.0
 70
     0
  0
VERTEX
  8
Bezirk
 10
681495.000
 20
236085.000
 30
0.0
 70
     0
  0
VERTEX
  8
Bezirk
 10
681520.000
 20
236052.000
 30
0.0
 70
     0
  0
VERTEX
  8
Bezirk
 10
681547.000
 20
235980.000
 30
0.0
 70
     0
  0
VERTEX
  8
Bezirk
 10
681547.000
 20
235935.000
 30
0.0
 70
     0
  0
VERTEX
  8
Bezirk
 10
681572.000
 20
235922.000
 30
0.0
 70
     0
  0
VERTEX
  8
Bezirk
 10
681617.000
 20
235882.000
 30
0.0
 70
     0
  0
VERTEX
  8
Bezirk
 10
681635.000
 20
235852.000
 30
0.0
 70
     0
  0
VERTEX
  8
Bezirk
 10
681645.000
 20
235825.000
 30
0.0
 70
     0
  0
VERTEX
  8
Bezirk
 10
681675.000
 20
235795.000
 30
0.0
 70
     0
  0
VERTEX
  8
Bezirk
 10
681685.000
 20
235775.000
 30
0.0
 70
     0
  0
VERTEX
  8
Bezirk
 10
681692.000
 20
235735.000
 30
0.0
 70
     0
  0
VERTEX
  8
Bezirk
 10
681690.000
 20
235700.000
 30
0.0
 70
     0
  0
VERTEX
  8
Bezirk
 10
681695.000
 20
235662.000
 30
0.0
 70
     0
  0
VERTEX
  8
Bezirk
 10
681725.000
 20
235627.000
 30
0.0
 70
     0
  0
VERTEX
  8
Bezirk
 10
681782.000
 20
235637.000
 30
0.0
 70
     0
  0
VERTEX
  8
Bezirk
 10
681812.000
 20
235617.000
 30
0.0
 70
     0
  0
VERTEX
  8
Bezirk
 10
681897.000
 20
235535.000
 30
0.0
 70
     0
  0
VERTEX
  8
Bezirk
 10
681932.000
 20
235495.000
 30
0.0
 70
     0
  0
VERTEX
  8
Bezirk
 10
681960.000
 20
235485.000
 30
0.0
 70
     0
  0
VERTEX
  8
Bezirk
 10
681975.000
 20
235490.000
 30
0.0
 70
     0
  0
VERTEX
  8
Bezirk
 10
681977.000
 20
235505.000
 30
0.0
 70
     0
  0
VERTEX
  8
Bezirk
 10
681995.000
 20
235507.000
 30
0.0
 70
     0
  0
VERTEX
  8
Bezirk
 10
682005.000
 20
235555.000
 30
0.0
 70
     0
  0
VERTEX
  8
Bezirk
 10
682035.000
 20
235642.000
 30
0.0
 70
     0
  0
VERTEX
  8
Bezirk
 10
682075.000
 20
235685.000
 30
0.0
 70
     0
  0
VERTEX
  8
Bezirk
 10
682095.000
 20
235700.000
 30
0.0
 70
     0
  0
VERTEX
  8
Bezirk
 10
682110.000
 20
235722.000
 30
0.0
 70
     0
  0
VERTEX
  8
Bezirk
 10
682165.000
 20
235757.000
 30
0.0
 70
     0
  0
VERTEX
  8
Bezirk
 10
682207.000
 20
235772.000
 30
0.0
 70
     0
  0
VERTEX
  8
Bezirk
 10
682262.000
 20
235770.000
 30
0.0
 70
     0
  0
VERTEX
  8
Bezirk
 10
682287.000
 20
235732.000
 30
0.0
 70
     0
  0
VERTEX
  8
Bezirk
 10
682322.000
 20
235697.000
 30
0.0
 70
     0
  0
VERTEX
  8
Bezirk
 10
682357.000
 20
235680.000
 30
0.0
 70
     0
  0
VERTEX
  8
Bezirk
 10
682390.000
 20
235675.000
 30
0.0
 70
     0
  0
VERTEX
  8
Bezirk
 10
682430.000
 20
235675.000
 30
0.0
 70
     0
  0
VERTEX
  8
Bezirk
 10
682455.000
 20
235682.000
 30
0.0
 70
     0
  0
VERTEX
  8
Bezirk
 10
682580.000
 20
235662.000
 30
0.0
 70
     0
  0
VERTEX
  8
Bezirk
 10
682622.000
 20
235652.000
 30
0.0
 70
     0
  0
VERTEX
  8
Bezirk
 10
682722.000
 20
235602.000
 30
0.0
 70
     0
  0
VERTEX
  8
Bezirk
 10
682747.000
 20
235605.000
 30
0.0
 70
     0
  0
VERTEX
  8
Bezirk
 10
682772.000
 20
235590.000
 30
0.0
 70
     0
  0
VERTEX
  8
Bezirk
 10
682830.000
 20
235517.000
 30
0.0
 70
     0
  0
VERTEX
  8
Bezirk
 10
682847.000
 20
235482.000
 30
0.0
 70
     0
  0
VERTEX
  8
Bezirk
 10
682870.000
 20
235450.000
 30
0.0
 70
     0
  0
VERTEX
  8
Bezirk
 10
682882.000
 20
235387.000
 30
0.0
 70
     0
  0
VERTEX
  8
Bezirk
 10
682880.000
 20
235337.000
 30
0.0
 70
     0
  0
VERTEX
  8
Bezirk
 10
682887.000
 20
235310.000
 30
0.0
 70
     0
  0
VERTEX
  8
Bezirk
 10
682887.000
 20
235245.000
 30
0.0
 70
     0
  0
VERTEX
  8
Bezirk
 10
682917.000
 20
235212.000
 30
0.0
 70
     0
  0
VERTEX
  8
Bezirk
 10
682980.000
 20
235097.000
 30
0.0
 70
     0
  0
VERTEX
  8
Bezirk
 10
683002.000
 20
235047.000
 30
0.0
 70
     0
  0
SEQEND
  0
POLYLINE
  8
Gemeinde
 66
     1
 70
     0
  0
VERTEX
  8
Gemeinde
 10
680610.000
 20
236347.000
 30
0.0
 70
     0
  0
VERTEX
  8
Gemeinde
 10
680592.000
 20
236352.000
 30
0.0
 70
     0
  0
VERTEX
  8
Gemeinde
 10
680570.000
 20
236370.000
 30
0.0
 70
     0
  0
VERTEX
  8
Gemeinde
 10
680545.000
 20
236377.000
 30
0.0
 70
     0
  0
VERTEX
  8
Gemeinde
 10
680512.000
 20
236372.000
 30
0.0
 70
     0
  0
VERTEX
  8
Gemeinde
 10
680432.000
 20
236320.000
 30
0.0
 70
     0
  0
VERTEX
  8
Gemeinde
 10
680402.000
 20
236295.000
 30
0.0
 70
     0
  0
VERTEX
  8
Gemeinde
 10
680425.000
 20
236202.000
 30
0.0
 70
     0
  0
VERTEX
  8
Gemeinde
 10
680575.000
 20
235467.000
 30
0.0
 70
     0
  0
VERTEX
  8
Gemeinde
 10
680580.000
 20
235420.000
 30
0.0
 70
     0
  0
VERTEX
  8
Gemeinde
 10
680560.000
 20
235380.000
 30
0.0
 70
     0
  0
VERTEX
  8
Gemeinde
 10
680552.000
 20
235317.000
 30
0.0
 70
     0
  0
VERTEX
  8
Gemeinde
 10
680542.000
 20
235300.000
 30
0.0
 70
     0
  0
VERTEX
  8
Gemeinde
 10
680505.000
 20
235267.000
 30
0.0
 70
     0
  0
VERTEX
  8
Gemeinde
 10
680512.000
 20
235250.000
 30
0.0
 70
     0
  0
VERTEX
  8
Gemeinde
 10
680502.000
 20
235235.000
 30
0.0
 70
     0
  0
VERTEX
  8
Gemeinde
 10
680490.000
 20
235117.000
 30
0.0
 70
     0
  0
VERTEX
  8
Gemeinde
 10
680492.000
 20
235095.000
 30
0.0
 70
     0
  0
VERTEX
  8
Gemeinde
 10
680507.000
 20
235055.000
 30
0.0
 70
     0
  0
VERTEX
  8
Gemeinde
 10
680497.000
 20
235027.000
 30
0.0
 70
     0
  0
SEQEND
  0
POLYLINE
  8
Gemeinde
 66
     1
 70
     0
  0
VERTEX
  8
Gemeinde
 10
680497.000
 20
235027.000
 30
0.0
 70
     0
  0
VERTEX
  8
Gemeinde
 10
680475.000
 20
235050.000
 30
0.0
 70
     0
  0
VERTEX
  8
Gemeinde
 10
680407.000
 20
235062.000
 30
0.0
 70
     0
  0
VERTEX
  8
Gemeinde
 10
680375.000
 20
235027.000
 30
0.0
 70
     0
  0
SEQEND
  0
POLYLINE
  8
Gemeinde
 66
     1
 70
     0
  0
VERTEX
  8
Gemeinde
 10
684155.000
 20
236365.000
 30
0.0
 70
     0
  0
VERTEX
  8
Gemeinde
 10
684202.000
 20
236275.000
 30
0.0
 70
     0
  0
VERTEX
  8
Gemeinde
 10
684247.000
 20
236210.000
 30
0.0
 70
     0
  0
VERTEX
  8
Gemeinde
 10
684247.000
 20
236197.000
 30
0.0
 70
     0
  0
VERTEX
  8
Gemeinde
 10
684265.000
 20
236187.000
 30
0.0
 70
     0
  0
VERTEX
  8
Gemeinde
 10
684267.000
 20
236172.000
 30
0.0
 70
     0
  0
VERTEX
  8
Gemeinde
 10
684260.000
 20
236152.000
 30
0.0
 70
     0
  0
VERTEX
  8
Gemeinde
 10
684280.000
 20
236125.000
 30
0.0
 70
     0
  0
VERTEX
  8
Gemeinde
 10
684257.000
 20
236080.000
 30
0.0
 70
     0
  0
VERTEX
  8
Gemeinde
 10
684202.000
 20
236055.000
 30
0.0
 70
     0
  0
VERTEX
  8
Gemeinde
 10
684187.000
 20
236035.000
 30
0.0
 70
     0
  0
VERTEX
  8
Gemeinde
 10
684142.000
 20
236017.000
 30
0.0
 70
     0
  0
VERTEX
  8
Gemeinde
 10
684127.000
 20
236005.000
 30
0.0
 70
     0
  0
VERTEX
  8
Gemeinde
 10
684080.000
 20
235990.000
 30
0.0
 70
     0
  0
VERTEX
  8
Gemeinde
 10
684062.000
 20
235972.000
 30
0.0
 70
     0
  0
VERTEX
  8
Gemeinde
 10
683985.000
 20
235940.000
 30
0.0
 70
     0
  0
VERTEX
  8
Gemeinde
 10
683962.000
 20
235932.000
 30
0.0
 70
     0
  0
VERTEX
  8
Gemeinde
 10
683925.000
 20
235882.000
 30
0.0
 70
     0
  0
VERTEX
  8
Gemeinde
 10
683887.000
 20
235870.000
 30
0.0
 70
     0
  0
VERTEX
  8
Gemeinde
 10
683852.000
 20
235837.000
 30
0.0
 70
     0
  0
VERTEX
  8
Gemeinde
 10
683835.000
 20
235792.000
 30
0.0
 70
     0
  0
VERTEX
  8
Gemeinde
 10
683822.000
 20
235772.000
 30
0.0
 70
     0
  0
VERTEX
  8
Gemeinde
 10
683807.000
 20
235762.000
 30
0.0
 70
     0
  0
VERTEX
  8
Gemeinde
 10
683785.000
 20
235715.000
 30
0.0
 70
     0
  0
VERTEX
  8
Gemeinde
 10
683790.000
 20
235692.000
 30
0.0
 70
     0
  0
VERTEX
  8
Gemeinde
 10
683775.000
 20
235670.000
 30
0.0
 70
     0
  0
VERTEX
  8
Gemeinde
 10
683692.000
 20
235605.000
 30
0.0
 70
     0
  0
VERTEX
  8
Gemeinde
 10
683600.000
 20
235560.000
 30
0.0
 70
     0
  0
VERTEX
  8
Gemeinde
 10
683567.000
 20
235562.000
 30
0.0
 70
     0
  0
VERTEX
  8
Gemeinde
 10
683550.000
 20
235557.000
 30
0.0
 70
     0
  0
VERTEX
  8
Gemeinde
 10
683525.000
 20
235560.000
 30
0.0
 70
     0
  0
VERTEX
  8
Gemeinde
 10
683505.000
 20
235530.000
 30
0.0
 70
     0
  0
VERTEX
  8
Gemeinde
 10
683485.000
 20
235522.000
 30
0.0
 70
     0
  0
VERTEX
  8
Gemeinde
 10
683482.000
 20
235512.000
 30
0.0
 70
     0
  0
VERTEX
  8
Gemeinde
 10
683490.000
 20
235502.000
 30
0.0
 70
     0
  0
VERTEX
  8
Gemeinde
 10
683477.000
 20
235432.000
 30
0.0
 70
     0
  0
VERTEX
  8
Gemeinde
 10
683457.000
 20
235417.000
 30
0.0
 70
     0
  0
VERTEX
  8
Gemeinde
 10
683407.000
 20
235390.000
 30
0.0
 70
     0
  0
VERTEX
  8
Gemeinde
 10
683362.000
 20
235340.000
 30
0.0
 70
     0
  0
VERTEX
  8
Gemeinde
 10
683332.000
 20
235330.000
 30
0.0
 70
     0
  0
VERTEX
  8
Gemeinde
 10
683300.000
 20
235290.000
 30
0.0
 70
     0
  0
VERTEX
  8
Gemeinde
 10
683322.000
 20
235232.000
 30
0.0
 70
     0
  0
VERTEX
  8
Gemeinde
 10
683305.000
 20
235212.000
 30
0.0
 70
     0
  0
VERTEX
  8
Gemeinde
 10
683280.000
 20
235225.000
 30
0.0
 70
     0
  0
VERTEX
  8
Gemeinde
 10
683272.000
 20
235192.000
 30
0.0
 70
     0
  0
VERTEX
  8
Gemeinde
 10
683277.000
 20
235162.000
 30
0.0
 70
     0
  0
VERTEX
  8
Gemeinde
 10
683287.000
 20
235140.000
 30
0.0
 70
     0
  0
VERTEX
  8
Gemeinde
 10
683297.000
 20
235027.000
 30
0.0
 70
     0
  0
VERTEX
  8
Gemeinde
 10
683290.000
 20
234985.000
 30
0.0
 70
     0
  0
VERTEX
  8
Gemeinde
 10
683242.000
 20
235005.000
 30
0.0
 70
     0
  0
VERTEX
  8
Gemeinde
 10
683172.000
 20
235012.000
 30
0.0
 70
     0
  0
VERTEX
  8
Gemeinde
 10
683120.000
 20
235015.000
 30
0.0
 70
     0
  0
VERTEX
  8
Gemeinde
 10
683052.000
 20
235050.000
 30
0.0
 70
     0
  0
VERTEX
  8
Gemeinde
 10
683040.000
 20
235045.000
 30
0.0
 70
     0
  0
VERTEX
  8
Gemeinde
 10
683022.000
 20
235072.000
 30
0.0
 70
     0
  0
VERTEX
  8
Gemeinde
 10
683005.000
 20
235057.000
 30
0.0
 70
     0
  0
VERTEX
  8
Gemeinde
 10
683002.000
 20
235047.000
 30
0.0
 70
     0
  0
SEQEND
  0
POLYLINE
  8
Gemeinde
 66
     1
 70
     0
  0
VERTEX
  8
Gemeinde
 10
678240.000
 20
235245.000
 30
0.0
 70
     0
  0
VERTEX
  8
Gemeinde
 10
678257.000
 20
235182.000
 30
0.0
 70
     0
  0
VERTEX
  8
Gemeinde
 10
678275.000
 20
235167.000
 30
0.0
 70
     0
  0
VERTEX
  8
Gemeinde
 10
678300.000
 20
235135.000
 30
0.0
 70
     0
  0
VERTEX
  8
Gemeinde
 10
678320.000
 20
235087.000
 30
0.0
 70
     0
  0
VERTEX
  8
Gemeinde
 10
678325.000
 20
235057.000
 30
0.0
 70
     0
  0
VERTEX
  8
Gemeinde
 10
678310.000
 20
235032.000
 30
0.0
 70
     0
  0
VERTEX
  8
Gemeinde
 10
678325.000
 20
234997.000
 30
0.0
 70
     0
  0
VERTEX
  8
Gemeinde
 10
678345.000
 20
234970.000
 30
0.0
 70
     0
  0
VERTEX
  8
Gemeinde
 10
678425.000
 20
234912.000
 30
0.0
 70
     0
  0
VERTEX
  8
Gemeinde
 10
678497.000
 20
234895.000
 30
0.0
 70
     0
  0
VERTEX
  8
Gemeinde
 10
678525.000
 20
234900.000
 30
0.0
 70
     0
  0
VERTEX
  8
Gemeinde
 10
678557.000
 20
234920.000
 30
0.0
 70
     0
  0
VERTEX
  8
Gemeinde
 10
678707.000
 20
234867.000
 30
0.0
 70
     0
  0
VERTEX
  8
Gemeinde
 10
678762.000
 20
234815.000
 30
0.0
 70
     0
  0
VERTEX
  8
Gemeinde
 10
678785.000
 20
234785.000
 30
0.0
 70
     0
  0
VERTEX
  8
Gemeinde
 10
678807.000
 20
234772.000
 30
0.0
 70
     0
  0
VERTEX
  8
Gemeinde
 10
678837.000
 20
234765.000
 30
0.0
 70
     0
  0
VERTEX
  8
Gemeinde
 10
678860.000
 20
234735.000
 30
0.0
 70
     0
  0
VERTEX
  8
Gemeinde
 10
678950.000
 20
234717.000
 30
0.0
 70
     0
  0
VERTEX
  8
Gemeinde
 10
678982.000
 20
234700.000
 30
0.0
 70
     0
  0
VERTEX
  8
Gemeinde
 10
679037.000
 20
234652.000
 30
0.0
 70
     0
  0
VERTEX
  8
Gemeinde
 10
679060.000
 20
234642.000
 30
0.0
 70
     0
  0
VERTEX
  8
Gemeinde
 10
679085.000
 20
234640.000
 30
0.0
 70
     0
  0
VERTEX
  8
Gemeinde
 10
679105.000
 20
234625.000
 30
0.0
 70
     0
  0
VERTEX
  8
Gemeinde
 10
679125.000
 20
234585.000
 30
0.0
 70
     0
  0
VERTEX
  8
Gemeinde
 10
679175.000
 20
234615.000
 30
0.0
 70
     0
  0
VERTEX
  8
Gemeinde
 10
679200.000
 20
234615.000
 30
0.0
 70
     0
  0
VERTEX
  8
Gemeinde
 10
679230.000
 20
234622.000
 30
0.0
 70
     0
  0
VERTEX
  8
Gemeinde
 10
679225.000
 20
234652.000
 30
0.0
 70
     0
  0
VERTEX
  8
Gemeinde
 10
679240.000
 20
234655.000
 30
0.0
 70
     0
  0
VERTEX
  8
Gemeinde
 10
679235.000
 20
234685.000
 30
0.0
 70
     0
  0
VERTEX
  8
Gemeinde
 10
679195.000
 20
234677.000
 30
0.0
 70
     0
  0
VERTEX
  8
Gemeinde
 10
679180.000
 20
234710.000
 30
0.0
 70
     0
  0
VERTEX
  8
Gemeinde
 10
679195.000
 20
234762.000
 30
0.0
 70
     0
  0
VERTEX
  8
Gemeinde
 10
679217.000
 20
234817.000
 30
0.0
 70
     0
  0
VERTEX
  8
Gemeinde
 10
679235.000
 20
234845.000
 30
0.0
 70
     0
  0
VERTEX
  8
Gemeinde
 10
679255.000
 20
234895.000
 30
0.0
 70
     0
  0
VERTEX
  8
Gemeinde
 10
679332.000
 20
234885.000
 30
0.0
 70
     0
  0
VERTEX
  8
Gemeinde
 10
679337.000
 20
234927.000
 30
0.0
 70
     0
  0
VERTEX
  8
Gemeinde
 10
679365.000
 20
234955.000
 30
0.0
 70
     0
  0
VERTEX
  8
Gemeinde
 10
679425.000
 20
234892.000
 30
0.0
 70
     0
  0
VERTEX
  8
Gemeinde
 10
679452.000
 20
234890.000
 30
0.0
 70
     0
  0
VERTEX
  8
Gemeinde
 10
679472.000
 20
234897.000
 30
0.0
 70
     0
  0
VERTEX
  8
Gemeinde
 10
679487.000
 20
234932.000
 30
0.0
 70
     0
  0
VERTEX
  8
Gemeinde
 10
679530.000
 20
234930.000
 30
0.0
 70
     0
  0
VERTEX
  8
Gemeinde
 10
679575.000
 20
234932.000
 30
0.0
 70
     0
  0
VERTEX
  8
Gemeinde
 10
679657.000
 20
234890.000
 30
0.0
 70
     0
  0
VERTEX
  8
Gemeinde
 10
679682.000
 20
234867.000
 30
0.0
 70
     0
  0
VERTEX
  8
Gemeinde
 10
679722.000
 20
234855.000
 30
0.0
 70
     0
  0
VERTEX
  8
Gemeinde
 10
679770.000
 20
234862.000
 30
0.0
 70
     0
  0
VERTEX
  8
Gemeinde
 10
679772.000
 20
234875.000
 30
0.0
 70
     0
  0
VERTEX
  8
Gemeinde
 10
679865.000
 20
234862.000
 30
0.0
 70
     0
  0
VERTEX
  8
Gemeinde
 10
679955.000
 20
234865.000
 30
0.0
 70
     0
  0
VERTEX
  8
Gemeinde
 10
679997.000
 20
234875.000
 30
0.0
 70
     0
  0
VERTEX
  8
Gemeinde
 10
680032.000
 20
234895.000
 30
0.0
 70
     0
  0
VERTEX
  8
Gemeinde
 10
680087.000
 20
234942.000
 30
0.0
 70
     0
  0
VERTEX
  8
Gemeinde
 10
680162.000
 20
234990.000
 30
0.0
 70
     0
  0
VERTEX
  8
Gemeinde
 10
680202.000
 20
235007.000
 30
0.0
 70
     0
  0
VERTEX
  8
Gemeinde
 10
680252.000
 20
235007.000
 30
0.0
 70
     0
  0
VERTEX
  8
Gemeinde
 10
680295.000
 20
234997.000
 30
0.0
 70
     0
  0
VERTEX
  8
Gemeinde
 10
680327.000
 20
234997.000
 30
0.0
 70
     0
  0
VERTEX
  8
Gemeinde
 10
680375.000
 20
235027.000
 30
0.0
 70
     0
  0
SEQEND
  0
POLYLINE
  8
Gemeinde
 66
     1
 70
     0
  0
VERTEX
  8
Gemeinde
 10
676175.000
 20
235526.000
 30
0.0
 70
     0
  0
VERTEX
  8
Gemeinde
 10
676102.000
 20
235487.000
 30
0.0
 70
     0
  0
VERTEX
  8
Gemeinde
 10
676043.000
 20
235447.000
 30
0.0
 70
     0
  0
VERTEX
  8
Gemeinde
 10
675995.000
 20
235429.000
 30
0.0
 70
     0
  0
VERTEX
  8
Gemeinde
 10
675869.000
 20
235403.000
 30
0.0
 70
     0
  0
VERTEX
  8
Gemeinde
 10
675899.000
 20
235259.000
 30
0.0
 70
     0
  0
VERTEX
  8
Gemeinde
 10
675936.000
 20
235149.000
 30
0.0
 70
     0
  0
VERTEX
  8
Gemeinde
 10
675896.000
 20
235145.000
 30
0.0
 70
     0
  0
VERTEX
  8
Gemeinde
 10
675747.000
 20
235108.000
 30
0.0
 70
     0
  0
VERTEX
  8
Gemeinde
 10
675540.000
 20
235057.000
 30
0.0
 70
     0
  0
VERTEX
  8
Gemeinde
 10
675517.000
 20
235047.000
 30
0.0
 70
     0
  0
VERTEX
  8
Gemeinde
 10
675455.000
 20
235147.000
 30
0.0
 70
     0
  0
VERTEX
  8
Gemeinde
 10
675365.000
 20
235117.000
 30
0.0
 70
     0
  0
VERTEX
  8
Gemeinde
 10
675415.000
 20
234982.000
 30
0.0
 70
     0
  0
VERTEX
  8
Gemeinde
 10
675437.000
 20
234957.000
 30
0.0
 70
     0
  0
VERTEX
  8
Gemeinde
 10
675410.000
 20
234940.000
 30
0.0
 70
     0
  0
VERTEX
  8
Gemeinde
 10
675385.000
 20
234932.000
 30
0.0
 70
     0
  0
VERTEX
  8
Gemeinde
 10
675212.000
 20
234790.000
 30
0.0
 70
     0
  0
VERTEX
  8
Gemeinde
 10
675260.000
 20
234712.000
 30
0.0
 70
     0
  0
VERTEX
  8
Gemeinde
 10
675252.000
 20
234695.000
 30
0.0
 70
     0
  0
VERTEX
  8
Gemeinde
 10
675225.000
 20
234687.000
 30
0.0
 70
     0
  0
VERTEX
  8
Gemeinde
 10
675235.000
 20
234652.000
 30
0.0
 70
     0
  0
VERTEX
  8
Gemeinde
 10
675257.000
 20
234622.000
 30
0.0
 70
     0
  0
VERTEX
  8
Gemeinde
 10
675272.000
 20
234610.000
 30
0.0
 70
     0
  0
VERTEX
  8
Gemeinde
 10
675315.000
 20
234537.000
 30
0.0
 70
     0
  0
VERTEX
  8
Gemeinde
 10
675227.000
 20
234445.000
 30
0.0
 70
     0
  0
VERTEX
  8
Gemeinde
 10
675290.000
 20
234342.000
 30
0.0
 70
     0
  0
VERTEX
  8
Gemeinde
 10
675220.000
 20
234252.000
 30
0.0
 70
     0
  0
VERTEX
  8
Gemeinde
 10
675237.000
 20
234212.000
 30
0.0
 70
     0
  0
VERTEX
  8
Gemeinde
 10
675252.000
 20
234195.000
 30
0.0
 70
     0
  0
VERTEX
  8
Gemeinde
 10
675197.000
 20
234130.000
 30
0.0
 70
     0
  0
VERTEX
  8
Gemeinde
 10
675307.000
 20
233987.000
 30
0.0
 70
     0
  0
VERTEX
  8
Gemeinde
 10
675592.000
 20
233642.000
 30
0.0
 70
     0
  0
VERTEX
  8
Gemeinde
 10
675500.000
 20
233515.000
 30
0.0
 70
     0
  0
VERTEX
  8
Gemeinde
 10
675445.000
 20
233450.000
 30
0.0
 70
     0
  0
SEQEND
  0
POLYLINE
  8
Gemeinde
 66
     1
 70
     0
  0
VERTEX
  8
Gemeinde
 10
675445.000
 20
233450.000
 30
0.0
 70
     0
  0
VERTEX
  8
Gemeinde
 10
675497.000
 20
233402.000
 30
0.0
 70
     0
  0
VERTEX
  8
Gemeinde
 10
675535.000
 20
233287.000
 30
0.0
 70
     0
  0
VERTEX
  8
Gemeinde
 10
675590.000
 20
233290.000
 30
0.0
 70
     0
  0
VERTEX
  8
Gemeinde
 10
675585.000
 20
233187.000
 30
0.0
 70
     0
  0
VERTEX
  8
Gemeinde
 10
675592.000
 20
233150.000
 30
0.0
 70
     0
  0
VERTEX
  8
Gemeinde
 10
675625.000
 20
233082.000
 30
0.0
 70
     0
  0
VERTEX
  8
Gemeinde
 10
675655.000
 20
233007.000
 30
0.0
 70
     0
  0
SEQEND
  0
POLYLINE
  8
Gemeinde
 66
     1
 70
     0
  0
VERTEX
  8
Gemeinde
 10
680497.000
 20
235027.000
 30
0.0
 70
     0
  0
VERTEX
  8
Gemeinde
 10
680545.000
 20
234987.000
 30
0.0
 70
     0
  0
VERTEX
  8
Gemeinde
 10
680572.000
 20
234977.000
 30
0.0
 70
     0
  0
VERTEX
  8
Gemeinde
 10
680590.000
 20
234965.000
 30
0.0
 70
     0
  0
VERTEX
  8
Gemeinde
 10
680697.000
 20
234825.000
 30
0.0
 70
     0
  0
VERTEX
  8
Gemeinde
 10
680727.000
 20
234770.000
 30
0.0
 70
     0
  0
VERTEX
  8
Gemeinde
 10
680785.000
 20
234732.000
 30
0.0
 70
     0
  0
VERTEX
  8
Gemeinde
 10
680930.000
 20
234690.000
 30
0.0
 70
     0
  0
VERTEX
  8
Gemeinde
 10
680970.000
 20
234632.000
 30
0.0
 70
     0
  0
VERTEX
  8
Gemeinde
 10
681022.000
 20
234530.000
 30
0.0
 70
     0
  0
VERTEX
  8
Gemeinde
 10
681100.000
 20
234495.000
 30
0.0
 70
     0
  0
VERTEX
  8
Gemeinde
 10
681100.000
 20
234475.000
 30
0.0
 70
     0
  0
VERTEX
  8
Gemeinde
 10
681105.000
 20
234457.000
 30
0.0
 70
     0
  0
VERTEX
  8
Gemeinde
 10
681127.000
 20
234425.000
 30
0.0
 70
     0
  0
VERTEX
  8
Gemeinde
 10
681395.000
 20
234125.000
 30
0.0
 70
     0
  0
VERTEX
  8
Gemeinde
 10
681397.000
 20
234107.000
 30
0.0
 70
     0
  0
VERTEX
  8
Gemeinde
 10
681390.000
 20
234087.000
 30
0.0
 70
     0
  0
VERTEX
  8
Gemeinde
 10
681445.000
 20
234092.000
 30
0.0
 70
     0
  0
VERTEX
  8
Gemeinde
 10
681477.000
 20
234072.000
 30
0.0
 70
     0
  0
VERTEX
  8
Gemeinde
 10
681565.000
 20
233982.000
 30
0.0
 70
     0
  0
VERTEX
  8
Gemeinde
 10
681605.000
 20
233925.000
 30
0.0
 70
     0
  0
VERTEX
  8
Gemeinde
 10
681585.000
 20
233922.000
 30
0.0
 70
     0
  0
VERTEX
  8
Gemeinde
 10
681542.000
 20
233900.000
 30
0.0
 70
     0
  0
VERTEX
  8
Gemeinde
 10
681525.000
 20
233930.000
 30
0.0
 70
     0
  0
VERTEX
  8
Gemeinde
 10
681397.000
 20
233817.000
 30
0.0
 70
     0
  0
VERTEX
  8
Gemeinde
 10
681415.000
 20
233802.000
 30
0.0
 70
     0
  0
VERTEX
  8
Gemeinde
 10
681430.000
 20
233765.000
 30
0.0
 70
     0
  0
VERTEX
  8
Gemeinde
 10
681427.000
 20
233752.000
 30
0.0
 70
     0
  0
VERTEX
  8
Gemeinde
 10
681457.000
 20
233215.000
 30
0.0
 70
     0
  0
VERTEX
  8
Gemeinde
 10
681452.000
 20
233172.000
 30
0.0
 70
     0
  0
VERTEX
  8
Gemeinde
 10
681455.000
 20
233142.000
 30
0.0
 70
     0
  0
VERTEX
  8
Gemeinde
 10
681485.000
 20
233047.000
 30
0.0
 70
     0
  0
VERTEX
  8
Gemeinde
 10
681487.000
 20
233022.000
 30
0.0
 70
     0
  0
VERTEX
  8
Gemeinde
 10
681475.000
 20
232965.000
 30
0.0
 70
     0
  0
VERTEX
  8
Gemeinde
 10
681432.000
 20
232697.000
 30
0.0
 70
     0
  0
VERTEX
  8
Gemeinde
 10
681417.000
 20
232625.000
 30
0.0
 70
     0
  0
VERTEX
  8
Gemeinde
 10
681450.000
 20
232622.000
 30
0.0
 70
     0
  0
VERTEX
  8
Gemeinde
 10
681447.000
 20
232425.000
 30
0.0
 70
     0
  0
VERTEX
  8
Gemeinde
 10
681717.000
 20
232422.000
 30
0.0
 70
     0
  0
VERTEX
  8
Gemeinde
 10
681805.000
 20
232455.000
 30
0.0
 70
     0
  0
VERTEX
  8
Gemeinde
 10
681842.000
 20
232452.000
 30
0.0
 70
     0
  0
VERTEX
  8
Gemeinde
 10
681942.000
 20
232467.000
 30
0.0
 70
     0
  0
VERTEX
  8
Gemeinde
 10
681965.000
 20
232465.000
 30
0.0
 70
     0
  0
VERTEX
  8
Gemeinde
 10
682007.000
 20
232440.000
 30
0.0
 70
     0
  0
VERTEX
  8
Gemeinde
 10
682025.000
 20
232437.000
 30
0.0
 70
     0
  0
VERTEX
  8
Gemeinde
 10
682055.000
 20
232442.000
 30
0.0
 70
     0
  0
SEQEND
  0
POLYLINE
  8
Gemeinde
 66
     1
 70
     0
  0
VERTEX
  8
Gemeinde
 10
680375.000
 20
235027.000
 30
0.0
 70
     0
  0
VERTEX
  8
Gemeinde
 10
680355.000
 20
234927.000
 30
0.0
 70
     0
  0
VERTEX
  8
Gemeinde
 10
680295.000
 20
234862.000
 30
0.0
 70
     0
  0
VERTEX
  8
Gemeinde
 10
680305.000
 20
234820.000
 30
0.0
 70
     0
  0
VERTEX
  8
Gemeinde
 10
680345.000
 20
234700.000
 30
0.0
 70
     0
  0
VERTEX
  8
Gemeinde
 10
680327.000
 20
234657.000
 30
0.0
 70
     0
  0
VERTEX
  8
Gemeinde
 10
680282.000
 20
234592.000
 30
0.0
 70
     0
  0
VERTEX
  8
Gemeinde
 10
680295.000
 20
234570.000
 30
0.0
 70
     0
  0
VERTEX
  8
Gemeinde
 10
680260.000
 20
234550.000
 30
0.0
 70
     0
  0
VERTEX
  8
Gemeinde
 10
680162.000
 20
234515.000
 30
0.0
 70
     0
  0
VERTEX
  8
Gemeinde
 10
680125.000
 20
234512.000
 30
0.0
 70
     0
  0
VERTEX
  8
Gemeinde
 10
680077.000
 20
234502.000
 30
0.0
 70
     0
  0
VERTEX
  8
Gemeinde
 10
680050.000
 20
234487.000
 30
0.0
 70
     0
  0
VERTEX
  8
Gemeinde
 10
680027.000
 20
234452.000
 30
0.0
 70
     0
  0
VERTEX
  8
Gemeinde
 10
679970.000
 20
234382.000
 30
0.0
 70
     0
  0
VERTEX
  8
Gemeinde
 10
679932.000
 20
234300.000
 30
0.0
 70
     0
  0
VERTEX
  8
Gemeinde
 10
679915.000
 20
234272.000
 30
0.0
 70
     0
  0
VERTEX
  8
Gemeinde
 10
679780.000
 20
234160.000
 30
0.0
 70
     0
  0
VERTEX
  8
Gemeinde
 10
679742.000
 20
234125.000
 30
0.0
 70
     0
  0
VERTEX
  8
Gemeinde
 10
679792.000
 20
234070.000
 30
0.0
 70
     0
  0
VERTEX
  8
Gemeinde
 10
679837.000
 20
233897.000
 30
0.0
 70
     0
  0
VERTEX
  8
Gemeinde
 10
679737.000
 20
233845.000
 30
0.0
 70
     0
  0
VERTEX
  8
Gemeinde
 10
679690.000
 20
233815.000
 30
0.0
 70
     0
  0
VERTEX
  8
Gemeinde
 10
679627.000
 20
233792.000
 30
0.0
 70
     0
  0
VERTEX
  8
Gemeinde
 10
679587.000
 20
233790.000
 30
0.0
 70
     0
  0
VERTEX
  8
Gemeinde
 10
679560.000
 20
233827.000
 30
0.0
 70
     0
  0
VERTEX
  8
Gemeinde
 10
679490.000
 20
233820.000
 30
0.0
 70
     0
  0
VERTEX
  8
Gemeinde
 10
679380.000
 20
233887.000
 30
0.0
 70
     0
  0
VERTEX
  8
Gemeinde
 10
679390.000
 20
233930.000
 30
0.0
 70
     0
  0
VERTEX
  8
Gemeinde
 10
679377.000
 20
233982.000
 30
0.0
 70
     0
  0
VERTEX
  8
Gemeinde
 10
679355.000
 20
234012.000
 30
0.0
 70
     0
  0
VERTEX
  8
Gemeinde
 10
679332.000
 20
234030.000
 30
0.0
 70
     0
  0
VERTEX
  8
Gemeinde
 10
679302.000
 20
234080.000
 30
0.0
 70
     0
  0
VERTEX
  8
Gemeinde
 10
679290.000
 20
234112.000
 30
0.0
 70
     0
  0
VERTEX
  8
Gemeinde
 10
679195.000
 20
234195.000
 30
0.0
 70
     0
  0
VERTEX
  8
Gemeinde
 10
679175.000
 20
234235.000
 30
0.0
 70
     0
  0
VERTEX
  8
Gemeinde
 10
679092.000
 20
234197.000
 30
0.0
 70
     0
  0
VERTEX
  8
Gemeinde
 10
679060.000
 20
234207.000
 30
0.0
 70
     0
  0
VERTEX
  8
Gemeinde
 10
679035.000
 20
234197.000
 30
0.0
 70
     0
  0
VERTEX
  8
Gemeinde
 10
678977.000
 20
234197.000
 30
0.0
 70
     0
  0
VERTEX
  8
Gemeinde
 10
678950.000
 20
234190.000
 30
0.0
 70
     0
  0
VERTEX
  8
Gemeinde
 10
678922.000
 20
234172.000
 30
0.0
 70
     0
  0
VERTEX
  8
Gemeinde
 10
678882.000
 20
234157.000
 30
0.0
 70
     0
  0
VERTEX
  8
Gemeinde
 10
678840.000
 20
234155.000
 30
0.0
 70
     0
  0
VERTEX
  8
Gemeinde
 10
678622.000
 20
234210.000
 30
0.0
 70
     0
  0
VERTEX
  8
Gemeinde
 10
678602.000
 20
234225.000
 30
0.0
 70
     0
  0
VERTEX
  8
Gemeinde
 10
678585.000
 20
234192.000
 30
0.0
 70
     0
  0
VERTEX
  8
Gemeinde
 10
678532.000
 20
234172.000
 30
0.0
 70
     0
  0
VERTEX
  8
Gemeinde
 10
678465.000
 20
234157.000
 30
0.0
 70
     0
  0
VERTEX
  8
Gemeinde
 10
678415.000
 20
234140.000
 30
0.0
 70
     0
  0
VERTEX
  8
Gemeinde
 10
678382.000
 20
234120.000
 30
0.0
 70
     0
  0
VERTEX
  8
Gemeinde
 10
678332.000
 20
234100.000
 30
0.0
 70
     0
  0
VERTEX
  8
Gemeinde
 10
678280.000
 20
234065.000
 30
0.0
 70
     0
  0
VERTEX
  8
Gemeinde
 10
678250.000
 20
234035.000
 30
0.0
 70
     0
  0
VERTEX
  8
Gemeinde
 10
678320.000
 20
234025.000
 30
0.0
 70
     0
  0
VERTEX
  8
Gemeinde
 10
678367.000
 20
234012.000
 30
0.0
 70
     0
  0
VERTEX
  8
Gemeinde
 10
678475.000
 20
233967.000
 30
0.0
 70
     0
  0
VERTEX
  8
Gemeinde
 10
678540.000
 20
233920.000
 30
0.0
 70
     0
  0
VERTEX
  8
Gemeinde
 10
678622.000
 20
233787.000
 30
0.0
 70
     0
  0
VERTEX
  8
Gemeinde
 10
678662.000
 20
233755.000
 30
0.0
 70
     0
  0
VERTEX
  8
Gemeinde
 10
678677.000
 20
233747.000
 30
0.0
 70
     0
  0
VERTEX
  8
Gemeinde
 10
678655.000
 20
233700.000
 30
0.0
 70
     0
  0
VERTEX
  8
Gemeinde
 10
678592.000
 20
233660.000
 30
0.0
 70
     0
  0
VERTEX
  8
Gemeinde
 10
678525.000
 20
233675.000
 30
0.0
 70
     0
  0
VERTEX
  8
Gemeinde
 10
678512.000
 20
233652.000
 30
0.0
 70
     0
  0
VERTEX
  8
Gemeinde
 10
678472.000
 20
233602.000
 30
0.0
 70
     0
  0
VERTEX
  8
Gemeinde
 10
678457.000
 20
233592.000
 30
0.0
 70
     0
  0
VERTEX
  8
Gemeinde
 10
678455.000
 20
233577.000
 30
0.0
 70
     0
  0
VERTEX
  8
Gemeinde
 10
678545.000
 20
233525.000
 30
0.0
 70
     0
  0
VERTEX
  8
Gemeinde
 10
678587.000
 20
233510.000
 30
0.0
 70
     0
  0
VERTEX
  8
Gemeinde
 10
678642.000
 20
233482.000
 30
0.0
 70
     0
  0
VERTEX
  8
Gemeinde
 10
678665.000
 20
233477.000
 30
0.0
 70
     0
  0
VERTEX
  8
Gemeinde
 10
678672.000
 20
233437.000
 30
0.0
 70
     0
  0
VERTEX
  8
Gemeinde
 10
678692.000
 20
233400.000
 30
0.0
 70
     0
  0
VERTEX
  8
Gemeinde
 10
678717.000
 20
233380.000
 30
0.0
 70
     0
  0
VERTEX
  8
Gemeinde
 10
678697.000
 20
233365.000
 30
0.0
 70
     0
  0
VERTEX
  8
Gemeinde
 10
678652.000
 20
233377.000
 30
0.0
 70
     0
  0
VERTEX
  8
Gemeinde
 10
678602.000
 20
233370.000
 30
0.0
 70
     0
  0
VERTEX
  8
Gemeinde
 10
678550.000
 20
233367.000
 30
0.0
 70
     0
  0
VERTEX
  8
Gemeinde
 10
678512.000
 20
233355.000
 30
0.0
 70
     0
  0
VERTEX
  8
Gemeinde
 10
678490.000
 20
233342.000
 30
0.0
 70
     0
  0
VERTEX
  8
Gemeinde
 10
678475.000
 20
233320.000
 30
0.0
 70
     0
  0
VERTEX
  8
Gemeinde
 10
678472.000
 20
233292.000
 30
0.0
 70
     0
  0
VERTEX
  8
Gemeinde
 10
678485.000
 20
233270.000
 30
0.0
 70
     0
  0
VERTEX
  8
Gemeinde
 10
678435.000
 20
233230.000
 30
0.0
 70
     0
  0
VERTEX
  8
Gemeinde
 10
678467.000
 20
233225.000
 30
0.0
 70
     0
  0
VERTEX
  8
Gemeinde
 10
678517.000
 20
233197.000
 30
0.0
 70
     0
  0
VERTEX
  8
Gemeinde
 10
678620.000
 20
233160.000
 30
0.0
 70
     0
  0
VERTEX
  8
Gemeinde
 10
678687.000
 20
233145.000
 30
0.0
 70
     0
  0
VERTEX
  8
Gemeinde
 10
678755.000
 20
233075.000
 30
0.0
 70
     0
  0
VERTEX
  8
Gemeinde
 10
678827.000
 20
232985.000
 30
0.0
 70
     0
  0
VERTEX
  8
Gemeinde
 10
678792.000
 20
232977.000
 30
0.0
 70
     0
  0
VERTEX
  8
Gemeinde
 10
678842.000
 20
232917.000
 30
0.0
 70
     0
  0
VERTEX
  8
Gemeinde
 10
678870.000
 20
232877.000
 30
0.0
 70
     0
  0
VERTEX
  8
Gemeinde
 10
678885.000
 20
232822.000
 30
0.0
 70
     0
  0
VERTEX
  8
Gemeinde
 10
678915.000
 20
232782.000
 30
0.0
 70
     0
  0
VERTEX
  8
Gemeinde
 10
678940.000
 20
232740.000
 30
0.0
 70
     0
  0
VERTEX
  8
Gemeinde
 10
678955.000
 20
232695.000
 30
0.0
 70
     0
  0
VERTEX
  8
Gemeinde
 10
678980.000
 20
232675.000
 30
0.0
 70
     0
  0
VERTEX
  8
Gemeinde
 10
679060.000
 20
232702.000
 30
0.0
 70
     0
  0
VERTEX
  8
Gemeinde
 10
679150.000
 20
232560.000
 30
0.0
 70
     0
  0
VERTEX
  8
Gemeinde
 10
679200.000
 20
232567.000
 30
0.0
 70
     0
  0
VERTEX
  8
Gemeinde
 10
679232.000
 20
232580.000
 30
0.0
 70
     0
  0
VERTEX
  8
Gemeinde
 10
679217.000
 20
232527.000
 30
0.0
 70
     0
  0
VERTEX
  8
Gemeinde
 10
679230.000
 20
232507.000
 30
0.0
 70
     0
  0
VERTEX
  8
Gemeinde
 10
679235.000
 20
232475.000
 30
0.0
 70
     0
  0
VERTEX
  8
Gemeinde
 10
679185.000
 20
232432.000
 30
0.0
 70
     0
  0
VERTEX
  8
Gemeinde
 10
679142.000
 20
232400.000
 30
0.0
 70
     0
  0
SEQEND
  0
POLYLINE
  8
Gemeinde
 66
     1
 70
     0
  0
VERTEX
  8
Gemeinde
 10
682055.000
 20
232442.000
 30
0.0
 70
     0
  0
VERTEX
  8
Gemeinde
 10
682070.000
 20
232447.000
 30
0.0
 70
     0
  0
VERTEX
  8
Gemeinde
 10
682140.000
 20
232437.000
 30
0.0
 70
     0
  0
VERTEX
  8
Gemeinde
 10
682152.000
 20
232402.000
 30
0.0
 70
     0
  0
VERTEX
  8
Gemeinde
 10
682127.000
 20
232210.000
 30
0.0
 70
     0
  0
VERTEX
  8
Gemeinde
 10
682057.000
 20
232185.000
 30
0.0
 70
     0
  0
VERTEX
  8
Gemeinde
 10
681915.000
 20
232152.000
 30
0.0
 70
     0
  0
VERTEX
  8
Gemeinde
 10
681820.000
 20
232137.000
 30
0.0
 70
     0
  0
VERTEX
  8
Gemeinde
 10
681742.000
 20
232130.000
 30
0.0
 70
     0
  0
VERTEX
  8
Gemeinde
 10
681715.000
 20
232105.000
 30
0.0
 70
     0
  0
VERTEX
  8
Gemeinde
 10
681670.000
 20
232115.000
 30
0.0
 70
     0
  0
VERTEX
  8
Gemeinde
 10
681572.000
 20
232105.000
 30
0.0
 70
     0
  0
VERTEX
  8
Gemeinde
 10
681540.000
 20
232072.000
 30
0.0
 70
     0
  0
VERTEX
  8
Gemeinde
 10
681465.000
 20
231940.000
 30
0.0
 70
     0
  0
VERTEX
  8
Gemeinde
 10
681382.000
 20
231977.000
 30
0.0
 70
     0
  0
VERTEX
  8
Gemeinde
 10
681365.000
 20
231992.000
 30
0.0
 70
     0
  0
VERTEX
  8
Gemeinde
 10
681340.000
 20
231995.000
 30
0.0
 70
     0
  0
VERTEX
  8
Gemeinde
 10
681267.000
 20
231930.000
 30
0.0
 70
     0
  0
VERTEX
  8
Gemeinde
 10
681240.000
 20
231972.000
 30
0.0
 70
     0
  0
VERTEX
  8
Gemeinde
 10
681225.000
 20
231935.000
 30
0.0
 70
     0
  0
VERTEX
  8
Gemeinde
 10
681220.000
 20
231855.000
 30
0.0
 70
     0
  0
VERTEX
  8
Gemeinde
 10
681235.000
 20
231782.000
 30
0.0
 70
     0
  0
VERTEX
  8
Gemeinde
 10
681295.000
 20
231682.000
 30
0.0
 70
     0
  0
VERTEX
  8
Gemeinde
 10
681305.000
 20
231620.000
 30
0.0
 70
     0
  0
VERTEX
  8
Gemeinde
 10
681310.000
 20
231552.000
 30
0.0
 70
     0
  0
VERTEX
  8
Gemeinde
 10
681352.000
 20
231465.000
 30
0.0
 70
     0
  0
VERTEX
  8
Gemeinde
 10
681320.000
 20
231477.000
 30
0.0
 70
     0
  0
VERTEX
  8
Gemeinde
 10
681205.000
 20
231485.000
 30
0.0
 70
     0
  0
VERTEX
  8
Gemeinde
 10
681130.000
 20
231502.000
 30
0.0
 70
     0
  0
VERTEX
  8
Gemeinde
 10
681050.000
 20
231537.000
 30
0.0
 70
     0
  0
VERTEX
  8
Gemeinde
 10
680992.000
 20
231555.000
 30
0.0
 70
     0
  0
VERTEX
  8
Gemeinde
 10
680932.000
 20
231555.000
 30
0.0
 70
     0
  0
VERTEX
  8
Gemeinde
 10
680877.000
 20
231617.000
 30
0.0
 70
     0
  0
VERTEX
  8
Gemeinde
 10
680810.000
 20
231650.000
 30
0.0
 70
     0
  0
VERTEX
  8
Gemeinde
 10
680757.000
 20
231692.000
 30
0.0
 70
     0
  0
VERTEX
  8
Gemeinde
 10
680607.000
 20
231770.000
 30
0.0
 70
     0
  0
VERTEX
  8
Gemeinde
 10
680580.000
 20
231802.000
 30
0.0
 70
     0
  0
VERTEX
  8
Gemeinde
 10
680575.000
 20
231845.000
 30
0.0
 70
     0
  0
VERTEX
  8
Gemeinde
 10
680550.000
 20
231902.000
 30
0.0
 70
     0
  0
VERTEX
  8
Gemeinde
 10
680525.000
 20
231932.000
 30
0.0
 70
     0
  0
VERTEX
  8
Gemeinde
 10
680502.000
 20
231972.000
 30
0.0
 70
     0
  0
VERTEX
  8
Gemeinde
 10
680450.000
 20
232037.000
 30
0.0
 70
     0
  0
VERTEX
  8
Gemeinde
 10
680415.000
 20
232065.000
 30
0.0
 70
     0
  0
VERTEX
  8
Gemeinde
 10
680377.000
 20
232087.000
 30
0.0
 70
     0
  0
VERTEX
  8
Gemeinde
 10
680270.000
 20
232195.000
 30
0.0
 70
     0
  0
VERTEX
  8
Gemeinde
 10
680240.000
 20
232215.000
 30
0.0
 70
     0
  0
VERTEX
  8
Gemeinde
 10
680210.000
 20
232205.000
 30
0.0
 70
     0
  0
VERTEX
  8
Gemeinde
 10
680080.000
 20
232135.000
 30
0.0
 70
     0
  0
VERTEX
  8
Gemeinde
 10
680047.000
 20
232142.000
 30
0.0
 70
     0
  0
VERTEX
  8
Gemeinde
 10
680015.000
 20
232157.000
 30
0.0
 70
     0
  0
VERTEX
  8
Gemeinde
 10
680025.000
 20
232140.000
 30
0.0
 70
     0
  0
VERTEX
  8
Gemeinde
 10
680007.000
 20
232142.000
 30
0.0
 70
     0
  0
VERTEX
  8
Gemeinde
 10
679897.000
 20
232187.000
 30
0.0
 70
     0
  0
VERTEX
  8
Gemeinde
 10
679897.000
 20
232160.000
 30
0.0
 70
     0
  0
VERTEX
  8
Gemeinde
 10
679902.000
 20
232137.000
 30
0.0
 70
     0
  0
VERTEX
  8
Gemeinde
 10
679875.000
 20
232137.000
 30
0.0
 70
     0
  0
VERTEX
  8
Gemeinde
 10
679815.000
 20
232170.000
 30
0.0
 70
     0
  0
VERTEX
  8
Gemeinde
 10
679745.000
 20
232190.000
 30
0.0
 70
     0
  0
VERTEX
  8
Gemeinde
 10
679727.000
 20
232205.000
 30
0.0
 70
     0
  0
VERTEX
  8
Gemeinde
 10
679742.000
 20
232235.000
 30
0.0
 70
     0
  0
VERTEX
  8
Gemeinde
 10
679742.000
 20
232255.000
 30
0.0
 70
     0
  0
VERTEX
  8
Gemeinde
 10
679677.000
 20
232325.000
 30
0.0
 70
     0
  0
VERTEX
  8
Gemeinde
 10
679645.000
 20
232352.000
 30
0.0
 70
     0
  0
VERTEX
  8
Gemeinde
 10
679550.000
 20
232250.000
 30
0.0
 70
     0
  0
VERTEX
  8
Gemeinde
 10
679475.000
 20
232297.000
 30
0.0
 70
     0
  0
VERTEX
  8
Gemeinde
 10
679437.000
 20
232247.000
 30
0.0
 70
     0
  0
VERTEX
  8
Gemeinde
 10
679370.000
 20
232322.000
 30
0.0
 70
     0
  0
VERTEX
  8
Gemeinde
 10
679325.000
 20
232347.000
 30
0.0
 70
     0
  0
VERTEX
  8
Gemeinde
 10
679227.000
 20
232367.000
 30
0.0
 70
     0
  0
VERTEX
  8
Gemeinde
 10
679195.000
 20
232367.000
 30
0.0
 70
     0
  0
VERTEX
  8
Gemeinde
 10
679152.000
 20
232357.000
 30
0.0
 70
     0
  0
VERTEX
  8
Gemeinde
 10
679142.000
 20
232400.000
 30
0.0
 70
     0
  0
SEQEND
  0
POLYLINE
  8
Gemeinde
 66
     1
 70
     0
  0
VERTEX
  8
Gemeinde
 10
682055.000
 20
232442.000
 30
0.0
 70
     0
  0
VERTEX
  8
Gemeinde
 10
682052.000
 20
232487.000
 30
0.0
 70
     0
  0
VERTEX
  8
Gemeinde
 10
682050.000
 20
232597.000
 30
0.0
 70
     0
  0
VERTEX
  8
Gemeinde
 10
682080.000
 20
232597.000
 30
0.0
 70
     0
  0
VERTEX
  8
Gemeinde
 10
682122.000
 20
232567.000
 30
0.0
 70
     0
  0
VERTEX
  8
Gemeinde
 10
682155.000
 20
232537.000
 30
0.0
 70
     0
  0
VERTEX
  8
Gemeinde
 10
682177.000
 20
232557.000
 30
0.0
 70
     0
  0
VERTEX
  8
Gemeinde
 10
682225.000
 20
232505.000
 30
0.0
 70
     0
  0
VERTEX
  8
Gemeinde
 10
682527.000
 20
232220.000
 30
0.0
 70
     0
  0
VERTEX
  8
Gemeinde
 10
682635.000
 20
232107.000
 30
0.0
 70
     0
  0
VERTEX
  8
Gemeinde
 10
682665.000
 20
232082.000
 30
0.0
 70
     0
  0
VERTEX
  8
Gemeinde
 10
682742.000
 20
232062.000
 30
0.0
 70
     0
  0
VERTEX
  8
Gemeinde
 10
682962.000
 20
232025.000
 30
0.0
 70
     0
  0
VERTEX
  8
Gemeinde
 10
682995.000
 20
232015.000
 30
0.0
 70
     0
  0
VERTEX
  8
Gemeinde
 10
683020.000
 20
232020.000
 30
0.0
 70
     0
  0
VERTEX
  8
Gemeinde
 10
683230.000
 20
231985.000
 30
0.0
 70
     0
  0
VERTEX
  8
Gemeinde
 10
683250.000
 20
231977.000
 30
0.0
 70
     0
  0
VERTEX
  8
Gemeinde
 10
683282.000
 20
231947.000
 30
0.0
 70
     0
  0
VERTEX
  8
Gemeinde
 10
683272.000
 20
231917.000
 30
0.0
 70
     0
  0
VERTEX
  8
Gemeinde
 10
683332.000
 20
231862.000
 30
0.0
 70
     0
  0
VERTEX
  8
Gemeinde
 10
683562.000
 20
231610.000
 30
0.0
 70
     0
  0
VERTEX
  8
Gemeinde
 10
683612.000
 20
231545.000
 30
0.0
 70
     0
  0
VERTEX
  8
Gemeinde
 10
683497.000
 20
231432.000
 30
0.0
 70
     0
  0
VERTEX
  8
Gemeinde
 10
683410.000
 20
231560.000
 30
0.0
 70
     0
  0
VERTEX
  8
Gemeinde
 10
683232.000
 20
231450.000
 30
0.0
 70
     0
  0
VERTEX
  8
Gemeinde
 10
683282.000
 20
231357.000
 30
0.0
 70
     0
  0
VERTEX
  8
Gemeinde
 10
683305.000
 20
231325.000
 30
0.0
 70
     0
  0
VERTEX
  8
Gemeinde
 10
683342.000
 20
231295.000
 30
0.0
 70
     0
  0
VERTEX
  8
Gemeinde
 10
683375.000
 20
231275.000
 30
0.0
 70
     0
  0
VERTEX
  8
Gemeinde
 10
683417.000
 20
231267.000
 30
0.0
 70
     0
  0
VERTEX
  8
Gemeinde
 10
683447.000
 20
231240.000
 30
0.0
 70
     0
  0
VERTEX
  8
Gemeinde
 10
683477.000
 20
231187.000
 30
0.0
 70
     0
  0
VERTEX
  8
Gemeinde
 10
683475.000
 20
231135.000
 30
0.0
 70
     0
  0
VERTEX
  8
Gemeinde
 10
683502.000
 20
231080.000
 30
0.0
 70
     0
  0
VERTEX
  8
Gemeinde
 10
683577.000
 20
231065.000
 30
0.0
 70
     0
  0
VERTEX
  8
Gemeinde
 10
683642.000
 20
231032.000
 30
0.0
 70
     0
  0
VERTEX
  8
Gemeinde
 10
683655.000
 20
231002.000
 30
0.0
 70
     0
  0
VERTEX
  8
Gemeinde
 10
683515.000
 20
230935.000
 30
0.0
 70
     0
  0
VERTEX
  8
Gemeinde
 10
683540.000
 20
230910.000
 30
0.0
 70
     0
  0
VERTEX
  8
Gemeinde
 10
683612.000
 20
230865.000
 30
0.0
 70
     0
  0
VERTEX
  8
Gemeinde
 10
683670.000
 20
230852.000
 30
0.0
 70
     0
  0
VERTEX
  8
Gemeinde
 10
683705.000
 20
230840.000
 30
0.0
 70
     0
  0
VERTEX
  8
Gemeinde
 10
683672.000
 20
230715.000
 30
0.0
 70
     0
  0
SEQEND
  0
POLYLINE
  8
Bezirk
 66
     1
 70
     0
  0
VERTEX
  8
Bezirk
 10
683002.000
 20
235047.000
 30
0.0
 70
     0
  0
VERTEX
  8
Bezirk
 10
683025.000
 20
235030.000
 30
0.0
 70
     0
  0
VERTEX
  8
Bezirk
 10
683072.000
 20
234970.000
 30
0.0
 70
     0
  0
VERTEX
  8
Bezirk
 10
683085.000
 20
234935.000
 30
0.0
 70
     0
  0
VERTEX
  8
Bezirk
 10
683122.000
 20
234890.000
 30
0.0
 70
     0
  0
VERTEX
  8
Bezirk
 10
683157.000
 20
234865.000
 30
0.0
 70
     0
  0
VERTEX
  8
Bezirk
 10
683165.000
 20
234840.000
 30
0.0
 70
     0
  0
VERTEX
  8
Bezirk
 10
683167.000
 20
234785.000
 30
0.0
 70
     0
  0
VERTEX
  8
Bezirk
 10
683155.000
 20
234770.000
 30
0.0
 70
     0
  0
VERTEX
  8
Bezirk
 10
683177.000
 20
234705.000
 30
0.0
 70
     0
  0
VERTEX
  8
Bezirk
 10
683175.000
 20
234670.000
 30
0.0
 70
     0
  0
VERTEX
  8
Bezirk
 10
683182.000
 20
234650.000
 30
0.0
 70
     0
  0
VERTEX
  8
Bezirk
 10
683195.000
 20
234632.000
 30
0.0
 70
     0
  0
VERTEX
  8
Bezirk
 10
683217.000
 20
234620.000
 30
0.0
 70
     0
  0
VERTEX
  8
Bezirk
 10
683252.000
 20
234587.000
 30
0.0
 70
     0
  0
VERTEX
  8
Bezirk
 10
683330.000
 20
234500.000
 30
0.0
 70
     0
  0
VERTEX
  8
Bezirk
 10
683427.000
 20
234405.000
 30
0.0
 70
     0
  0
VERTEX
  8
Bezirk
 10
683467.000
 20
234330.000
 30
0.0
 70
     0
  0
VERTEX
  8
Bezirk
 10
683490.000
 20
234307.000
 30
0.0
 70
     0
  0
VERTEX
  8
Bezirk
 10
683555.000
 20
234280.000
 30
0.0
 70
     0
  0
VERTEX
  8
Bezirk
 10
683577.000
 20
234257.000
 30
0.0
 70
     0
  0
VERTEX
  8
Bezirk
 10
683615.000
 20
234177.000
 30
0.0
 70
     0
  0
VERTEX
  8
Bezirk
 10
683637.000
 20
234155.000
 30
0.0
 70
     0
  0
VERTEX
  8
Bezirk
 10
683640.000
 20
234125.000
 30
0.0
 70
     0
  0
VERTEX
  8
Bezirk
 10
683652.000
 20
234075.000
 30
0.0
 70
     0
  0
VERTEX
  8
Bezirk
 10
683682.000
 20
234007.000
 30
0.0
 70
     0
  0
VERTEX
  8
Bezirk
 10
683745.000
 20
233887.000
 30
0.0
 70
     0
  0
VERTEX
  8
Bezirk
 10
683760.000
 20
233870.000
 30
0.0
 70
     0
  0
VERTEX
  8
Bezirk
 10
683780.000
 20
233860.000
 30
0.0
 70
     0
  0
VERTEX
  8
Bezirk
 10
683790.000
 20
233850.000
 30
0.0
 70
     0
  0
VERTEX
  8
Bezirk
 10
683820.000
 20
233777.000
 30
0.0
 70
     0
  0
VERTEX
  8
Bezirk
 10
683862.000
 20
233725.000
 30
0.0
 70
     0
  0
VERTEX
  8
Bezirk
 10
683905.000
 20
233675.000
 30
0.0
 70
     0
  0
VERTEX
  8
Bezirk
 10
683932.000
 20
233620.000
 30
0.0
 70
     0
  0
VERTEX
  8
Bezirk
 10
683952.000
 20
233592.000
 30
0.0
 70
     0
  0
VERTEX
  8
Bezirk
 10
684037.000
 20
233532.000
 30
0.0
 70
     0
  0
VERTEX
  8
Bezirk
 10
684070.000
 20
233492.000
 30
0.0
 70
     0
  0
VERTEX
  8
Bezirk
 10
684102.000
 20
233475.000
 30
0.0
 70
     0
  0
VERTEX
  8
Bezirk
 10
684117.000
 20
233460.000
 30
0.0
 70
     0
  0
VERTEX
  8
Bezirk
 10
684172.000
 20
233425.000
 30
0.0
 70
     0
  0
VERTEX
  8
Bezirk
 10
684200.000
 20
233412.000
 30
0.0
 70
     0
  0
VERTEX
  8
Bezirk
 10
684257.000
 20
233402.000
 30
0.0
 70
     0
  0
VERTEX
  8
Bezirk
 10
684272.000
 20
233395.000
 30
0.0
 70
     0
  0
VERTEX
  8
Bezirk
 10
684302.000
 20
233337.000
 30
0.0
 70
     0
  0
VERTEX
  8
Bezirk
 10
684332.000
 20
233295.000
 30
0.0
 70
     0
  0
VERTEX
  8
Bezirk
 10
684372.000
 20
233265.000
 30
0.0
 70
     0
  0
VERTEX
  8
Bezirk
 10
684395.000
 20
233215.000
 30
0.0
 70
     0
  0
VERTEX
  8
Bezirk
 10
684475.000
 20
233152.000
 30
0.0
 70
     0
  0
VERTEX
  8
Bezirk
 10
684522.000
 20
233120.000
 30
0.0
 70
     0
  0
VERTEX
  8
Bezirk
 10
684565.000
 20
233105.000
 30
0.0
 70
     0
  0
VERTEX
  8
Bezirk
 10
684630.000
 20
233072.000
 30
0.0
 70
     0
  0
VERTEX
  8
Bezirk
 10
684705.000
 20
233022.000
 30
0.0
 70
     0
  0
VERTEX
  8
Bezirk
 10
684742.000
 20
232960.000
 30
0.0
 70
     0
  0
VERTEX
  8
Bezirk
 10
684752.000
 20
232927.000
 30
0.0
 70
     0
  0
VERTEX
  8
Bezirk
 10
684810.000
 20
232857.000
 30
0.0
 70
     0
  0
VERTEX
  8
Bezirk
 10
684865.000
 20
232762.000
 30
0.0
 70
     0
  0
VERTEX
  8
Bezirk
 10
684925.000
 20
232675.000
 30
0.0
 70
     0
  0
VERTEX
  8
Bezirk
 10
684972.000
 20
232595.000
 30
0.0
 70
     0
  0
VERTEX
  8
Bezirk
 10
684972.000
 20
232562.000
 30
0.0
 70
     0
  0
VERTEX
  8
Bezirk
 10
684967.000
 20
232535.000
 30
0.0
 70
     0
  0
VERTEX
  8
Bezirk
 10
684975.000
 20
232505.000
 30
0.0
 70
     0
  0
VERTEX
  8
Bezirk
 10
685012.000
 20
232432.000
 30
0.0
 70
     0
  0
VERTEX
  8
Bezirk
 10
685047.000
 20
232392.000
 30
0.0
 70
     0
  0
VERTEX
  8
Bezirk
 10
685075.000
 20
232372.000
 30
0.0
 70
     0
  0
VERTEX
  8
Bezirk
 10
685085.000
 20
232282.000
 30
0.0
 70
     0
  0
VERTEX
  8
Bezirk
 10
685107.000
 20
232225.000
 30
0.0
 70
     0
  0
VERTEX
  8
Bezirk
 10
685102.000
 20
232197.000
 30
0.0
 70
     0
  0
VERTEX
  8
Bezirk
 10
685130.000
 20
232155.000
 30
0.0
 70
     0
  0
VERTEX
  8
Bezirk
 10
685177.000
 20
231967.000
 30
0.0
 70
     0
  0
VERTEX
  8
Bezirk
 10
685177.000
 20
231955.000
 30
0.0
 70
     0
  0
VERTEX
  8
Bezirk
 10
685240.000
 20
231877.000
 30
0.0
 70
     0
  0
VERTEX
  8
Bezirk
 10
685282.000
 20
231855.000
 30
0.0
 70
     0
  0
VERTEX
  8
Bezirk
 10
685322.000
 20
231827.000
 30
0.0
 70
     0
  0
VERTEX
  8
Bezirk
 10
685425.000
 20
231732.000
 30
0.0
 70
     0
  0
VERTEX
  8
Bezirk
 10
685487.000
 20
231550.000
 30
0.0
 70
     0
  0
VERTEX
  8
Bezirk
 10
685510.000
 20
231495.000
 30
0.0
 70
     0
  0
VERTEX
  8
Bezirk
 10
685595.000
 20
231342.000
 30
0.0
 70
     0
  0
VERTEX
  8
Bezirk
 10
685637.000
 20
231320.000
 30
0.0
 70
     0
  0
VERTEX
  8
Bezirk
 10
685715.000
 20
231302.000
 30
0.0
 70
     0
  0
VERTEX
  8
Bezirk
 10
685755.000
 20
231267.000
 30
0.0
 70
     0
  0
VERTEX
  8
Bezirk
 10
685795.000
 20
231267.000
 30
0.0
 70
     0
  0
VERTEX
  8
Bezirk
 10
685915.000
 20
231227.000
 30
0.0
 70
     0
  0
VERTEX
  8
Bezirk
 10
685965.000
 20
231215.000
 30
0.0
 70
     0
  0
VERTEX
  8
Bezirk
 10
686012.000
 20
231180.000
 30
0.0
 70
     0
  0
VERTEX
  8
Bezirk
 10
686047.000
 20
231142.000
 30
0.0
 70
     0
  0
VERTEX
  8
Bezirk
 10
686092.000
 20
231102.000
 30
0.0
 70
     0
  0
VERTEX
  8
Bezirk
 10
686130.000
 20
231080.000
 30
0.0
 70
     0
  0
VERTEX
  8
Bezirk
 10
686145.000
 20
230937.000
 30
0.0
 70
     0
  0
VERTEX
  8
Bezirk
 10
686175.000
 20
230870.000
 30
0.0
 70
     0
  0
VERTEX
  8
Bezirk
 10
686152.000
 20
230815.000
 30
0.0
 70
     0
  0
VERTEX
  8
Bezirk
 10
686215.000
 20
230770.000
 30
0.0
 70
     0
  0
VERTEX
  8
Bezirk
 10
686390.000
 20
230705.000
 30
0.0
 70
     0
  0
VERTEX
  8
Bezirk
 10
686447.000
 20
230702.000
 30
0.0
 70
     0
  0
SEQEND
  0
POLYLINE
  8
Bezirk
 66
     1
 70
     0
  0
VERTEX
  8
Bezirk
 10
686447.000
 20
230702.000
 30
0.0
 70
     0
  0
VERTEX
  8
Bezirk
 10
686437.000
 20
230635.000
 30
0.0
 70
     0
  0
VERTEX
  8
Bezirk
 10
686455.000
 20
230565.000
 30
0.0
 70
     0
  0
VERTEX
  8
Bezirk
 10
686460.000
 20
230532.000
 30
0.0
 70
     0
  0
VERTEX
  8
Bezirk
 10
686457.000
 20
230502.000
 30
0.0
 70
     0
  0
VERTEX
  8
Bezirk
 10
686445.000
 20
230477.000
 30
0.0
 70
     0
  0
VERTEX
  8
Bezirk
 10
686420.000
 20
230457.000
 30
0.0
 70
     0
  0
VERTEX
  8
Bezirk
 10
686375.000
 20
230450.000
 30
0.0
 70
     0
  0
VERTEX
  8
Bezirk
 10
686327.000
 20
230452.000
 30
0.0
 70
     0
  0
VERTEX
  8
Bezirk
 10
686255.000
 20
230430.000
 30
0.0
 70
     0
  0
VERTEX
  8
Bezirk
 10
686237.000
 20
230377.000
 30
0.0
 70
     0
  0
SEQEND
  0
POLYLINE
  8
Gemeinde
 66
     1
 70
     0
  0
VERTEX
  8
Gemeinde
 10
679142.000
 20
232400.000
 30
0.0
 70
     0
  0
VERTEX
  8
Gemeinde
 10
679080.000
 20
232310.000
 30
0.0
 70
     0
  0
VERTEX
  8
Gemeinde
 10
679070.000
 20
232282.000
 30
0.0
 70
     0
  0
VERTEX
  8
Gemeinde
 10
679065.000
 20
232252.000
 30
0.0
 70
     0
  0
VERTEX
  8
Gemeinde
 10
679052.000
 20
232225.000
 30
0.0
 70
     0
  0
VERTEX
  8
Gemeinde
 10
679067.000
 20
232155.000
 30
0.0
 70
     0
  0
VERTEX
  8
Gemeinde
 10
679085.000
 20
232130.000
 30
0.0
 70
     0
  0
VERTEX
  8
Gemeinde
 10
679127.000
 20
232092.000
 30
0.0
 70
     0
  0
VERTEX
  8
Gemeinde
 10
679140.000
 20
232070.000
 30
0.0
 70
     0
  0
VERTEX
  8
Gemeinde
 10
679150.000
 20
232062.000
 30
0.0
 70
     0
  0
VERTEX
  8
Gemeinde
 10
679147.000
 20
232050.000
 30
0.0
 70
     0
  0
VERTEX
  8
Gemeinde
 10
679272.000
 20
232015.000
 30
0.0
 70
     0
  0
VERTEX
  8
Gemeinde
 10
679325.000
 20
231805.000
 30
0.0
 70
     0
  0
VERTEX
  8
Gemeinde
 10
679360.000
 20
231792.000
 30
0.0
 70
     0
  0
VERTEX
  8
Gemeinde
 10
679355.000
 20
231762.000
 30
0.0
 70
     0
  0
VERTEX
  8
Gemeinde
 10
679425.000
 20
231750.000
 30
0.0
 70
     0
  0
VERTEX
  8
Gemeinde
 10
679412.000
 20
231700.000
 30
0.0
 70
     0
  0
VERTEX
  8
Gemeinde
 10
679495.000
 20
231637.000
 30
0.0
 70
     0
  0
VERTEX
  8
Gemeinde
 10
679600.000
 20
231570.000
 30
0.0
 70
     0
  0
VERTEX
  8
Gemeinde
 10
679642.000
 20
231422.000
 30
0.0
 70
     0
  0
VERTEX
  8
Gemeinde
 10
679695.000
 20
231372.000
 30
0.0
 70
     0
  0
VERTEX
  8
Gemeinde
 10
679727.000
 20
231362.000
 30
0.0
 70
     0
  0
VERTEX
  8
Gemeinde
 10
679685.000
 20
231197.000
 30
0.0
 70
     0
  0
VERTEX
  8
Gemeinde
 10
679750.000
 20
231192.000
 30
0.0
 70
     0
  0
VERTEX
  8
Gemeinde
 10
679672.000
 20
230965.000
 30
0.0
 70
     0
  0
VERTEX
  8
Gemeinde
 10
679607.000
 20
230897.000
 30
0.0
 70
     0
  0
VERTEX
  8
Gemeinde
 10
679527.000
 20
230802.000
 30
0.0
 70
     0
  0
VERTEX
  8
Gemeinde
 10
679572.000
 20
230732.000
 30
0.0
 70
     0
  0
VERTEX
  8
Gemeinde
 10
679592.000
 20
230680.000
 30
0.0
 70
     0
  0
VERTEX
  8
Gemeinde
 10
679622.000
 20
230625.000
 30
0.0
 70
     0
  0
VERTEX
  8
Gemeinde
 10
679645.000
 20
230592.000
 30
0.0
 70
     0
  0
VERTEX
  8
Gemeinde
 10
679605.000
 20
230570.000
 30
0.0
 70
     0
  0
VERTEX
  8
Gemeinde
 10
679542.000
 20
230525.000
 30
0.0
 70
     0
  0
VERTEX
  8
Gemeinde
 10
679565.000
 20
230417.000
 30
0.0
 70
     0
  0
VERTEX
  8
Gemeinde
 10
679575.000
 20
230322.000
 30
0.0
 70
     0
  0
VERTEX
  8
Gemeinde
 10
679560.000
 20
230307.000
 30
0.0
 70
     0
  0
VERTEX
  8
Gemeinde
 10
679527.000
 20
230295.000
 30
0.0
 70
     0
  0
VERTEX
  8
Gemeinde
 10
679502.000
 20
230315.000
 30
0.0
 70
     0
  0
VERTEX
  8
Gemeinde
 10
679482.000
 20
230320.000
 30
0.0
 70
     0
  0
VERTEX
  8
Gemeinde
 10
679422.000
 20
230320.000
 30
0.0
 70
     0
  0
VERTEX
  8
Gemeinde
 10
679407.000
 20
230315.000
 30
0.0
 70
     0
  0
VERTEX
  8
Gemeinde
 10
679380.000
 20
230297.000
 30
0.0
 70
     0
  0
VERTEX
  8
Gemeinde
 10
679372.000
 20
230287.000
 30
0.0
 70
     0
  0
VERTEX
  8
Gemeinde
 10
679355.000
 20
230285.000
 30
0.0
 70
     0
  0
VERTEX
  8
Gemeinde
 10
679325.000
 20
230270.000
 30
0.0
 70
     0
  0
VERTEX
  8
Gemeinde
 10
679285.000
 20
230257.000
 30
0.0
 70
     0
  0
SEQEND
  0
POLYLINE
  8
Gemeinde
 66
     1
 70
     0
  0
VERTEX
  8
Gemeinde
 10
675655.000
 20
233007.000
 30
0.0
 70
     0
  0
VERTEX
  8
Gemeinde
 10
675687.000
 20
233015.000
 30
0.0
 70
     0
  0
VERTEX
  8
Gemeinde
 10
675800.000
 20
233077.000
 30
0.0
 70
     0
  0
VERTEX
  8
Gemeinde
 10
675847.000
 20
233107.000
 30
0.0
 70
     0
  0
VERTEX
  8
Gemeinde
 10
675875.000
 20
233130.000
 30
0.0
 70
     0
  0
VERTEX
  8
Gemeinde
 10
675890.000
 20
233102.000
 30
0.0
 70
     0
  0
VERTEX
  8
Gemeinde
 10
675922.000
 20
233062.000
 30
0.0
 70
     0
  0
VERTEX
  8
Gemeinde
 10
675945.000
 20
233027.000
 30
0.0
 70
     0
  0
VERTEX
  8
Gemeinde
 10
675932.000
 20
233002.000
 30
0.0
 70
     0
  0
VERTEX
  8
Gemeinde
 10
675927.000
 20
232947.000
 30
0.0
 70
     0
  0
VERTEX
  8
Gemeinde
 10
676025.000
 20
232717.000
 30
0.0
 70
     0
  0
VERTEX
  8
Gemeinde
 10
676022.000
 20
232735.000
 30
0.0
 70
     0
  0
VERTEX
  8
Gemeinde
 10
676082.000
 20
232860.000
 30
0.0
 70
     0
  0
VERTEX
  8
Gemeinde
 10
676105.000
 20
232875.000
 30
0.0
 70
     0
  0
VERTEX
  8
Gemeinde
 10
676160.000
 20
232880.000
 30
0.0
 70
     0
  0
VERTEX
  8
Gemeinde
 10
676195.000
 20
232875.000
 30
0.0
 70
     0
  0
VERTEX
  8
Gemeinde
 10
676225.000
 20
232882.000
 30
0.0
 70
     0
  0
VERTEX
  8
Gemeinde
 10
676205.000
 20
232852.000
 30
0.0
 70
     0
  0
VERTEX
  8
Gemeinde
 10
676245.000
 20
232772.000
 30
0.0
 70
     0
  0
VERTEX
  8
Gemeinde
 10
676290.000
 20
232640.000
 30
0.0
 70
     0
  0
VERTEX
  8
Gemeinde
 10
676322.000
 20
232562.000
 30
0.0
 70
     0
  0
VERTEX
  8
Gemeinde
 10
676342.000
 20
232527.000
 30
0.0
 70
     0
  0
VERTEX
  8
Gemeinde
 10
676457.000
 20
232387.000
 30
0.0
 70
     0
  0
VERTEX
  8
Gemeinde
 10
676465.000
 20
232470.000
 30
0.0
 70
     0
  0
VERTEX
  8
Gemeinde
 10
676472.000
 20
232495.000
 30
0.0
 70
     0
  0
VERTEX
  8
Gemeinde
 10
676487.000
 20
232512.000
 30
0.0
 70
     0
  0
VERTEX
  8
Gemeinde
 10
676530.000
 20
232542.000
 30
0.0
 70
     0
  0
VERTEX
  8
Gemeinde
 10
676562.000
 20
232557.000
 30
0.0
 70
     0
  0
VERTEX
  8
Gemeinde
 10
676600.000
 20
232567.000
 30
0.0
 70
     0
  0
VERTEX
  8
Gemeinde
 10
676668.000
 20
232562.000
 30
0.0
 70
     0
  0
VERTEX
  8
Gemeinde
 10
676691.000
 20
232558.000
 30
0.0
 70
     0
  0
VERTEX
  8
Gemeinde
 10
676727.000
 20
232550.000
 30
0.0
 70
     0
  0
VERTEX
  8
Gemeinde
 10
676734.000
 20
232553.000
 30
0.0
 70
     0
  0
VERTEX
  8
Gemeinde
 10
676742.000
 20
232546.000
 30
0.0
 70
     0
  0
VERTEX
  8
Gemeinde
 10
676763.000
 20
232568.000
 30
0.0
 70
     0
  0
VERTEX
  8
Gemeinde
 10
676770.000
 20
232553.000
 30
0.0
 70
     0
  0
VERTEX
  8
Gemeinde
 10
676770.000
 20
232542.000
 30
0.0
 70
     0
  0
VERTEX
  8
Gemeinde
 10
676769.000
 20
232527.000
 30
0.0
 70
     0
  0
VERTEX
  8
Gemeinde
 10
676770.000
 20
232501.000
 30
0.0
 70
     0
  0
VERTEX
  8
Gemeinde
 10
676772.000
 20
232490.000
 30
0.0
 70
     0
  0
VERTEX
  8
Gemeinde
 10
676782.000
 20
232469.000
 30
0.0
 70
     0
  0
VERTEX
  8
Gemeinde
 10
676798.000
 20
232447.000
 30
0.0
 70
     0
  0
VERTEX
  8
Gemeinde
 10
676830.000
 20
232405.000
 30
0.0
 70
     0
  0
VERTEX
  8
Gemeinde
 10
677002.000
 20
232115.000
 30
0.0
 70
     0
  0
VERTEX
  8
Gemeinde
 10
677112.000
 20
232130.000
 30
0.0
 70
     0
  0
VERTEX
  8
Gemeinde
 10
677175.000
 20
232147.000
 30
0.0
 70
     0
  0
VERTEX
  8
Gemeinde
 10
677210.000
 20
232000.000
 30
0.0
 70
     0
  0
VERTEX
  8
Gemeinde
 10
677227.000
 20
231955.000
 30
0.0
 70
     0
  0
VERTEX
  8
Gemeinde
 10
677327.000
 20
231960.000
 30
0.0
 70
     0
  0
VERTEX
  8
Gemeinde
 10
677357.000
 20
231957.000
 30
0.0
 70
     0
  0
VERTEX
  8
Gemeinde
 10
677462.000
 20
232007.000
 30
0.0
 70
     0
  0
VERTEX
  8
Gemeinde
 10
677492.000
 20
231985.000
 30
0.0
 70
     0
  0
VERTEX
  8
Gemeinde
 10
677522.000
 20
232035.000
 30
0.0
 70
     0
  0
VERTEX
  8
Gemeinde
 10
677577.000
 20
232050.000
 30
0.0
 70
     0
  0
VERTEX
  8
Gemeinde
 10
677615.000
 20
232055.000
 30
0.0
 70
     0
  0
VERTEX
  8
Gemeinde
 10
677675.000
 20
232072.000
 30
0.0
 70
     0
  0
VERTEX
  8
Gemeinde
 10
677695.000
 20
232070.000
 30
0.0
 70
     0
  0
VERTEX
  8
Gemeinde
 10
677775.000
 20
231967.000
 30
0.0
 70
     0
  0
VERTEX
  8
Gemeinde
 10
677832.000
 20
231907.000
 30
0.0
 70
     0
  0
VERTEX
  8
Gemeinde
 10
677857.000
 20
231905.000
 30
0.0
 70
     0
  0
VERTEX
  8
Gemeinde
 10
677877.000
 20
231787.000
 30
0.0
 70
     0
  0
VERTEX
  8
Gemeinde
 10
677900.000
 20
231717.000
 30
0.0
 70
     0
  0
VERTEX
  8
Gemeinde
 10
677902.000
 20
231687.000
 30
0.0
 70
     0
  0
VERTEX
  8
Gemeinde
 10
677910.000
 20
231660.000
 30
0.0
 70
     0
  0
VERTEX
  8
Gemeinde
 10
677910.000
 20
231577.000
 30
0.0
 70
     0
  0
VERTEX
  8
Gemeinde
 10
677942.000
 20
231532.000
 30
0.0
 70
     0
  0
VERTEX
  8
Gemeinde
 10
677950.000
 20
231495.000
 30
0.0
 70
     0
  0
VERTEX
  8
Gemeinde
 10
677980.000
 20
231502.000
 30
0.0
 70
     0
  0
VERTEX
  8
Gemeinde
 10
678035.000
 20
231492.000
 30
0.0
 70
     0
  0
VERTEX
  8
Gemeinde
 10
678085.000
 20
231467.000
 30
0.0
 70
     0
  0
VERTEX
  8
Gemeinde
 10
678042.000
 20
231395.000
 30
0.0
 70
     0
  0
VERTEX
  8
Gemeinde
 10
678072.000
 20
231357.000
 30
0.0
 70
     0
  0
VERTEX
  8
Gemeinde
 10
678132.000
 20
231327.000
 30
0.0
 70
     0
  0
VERTEX
  8
Gemeinde
 10
678142.000
 20
231305.000
 30
0.0
 70
     0
  0
VERTEX
  8
Gemeinde
 10
678157.000
 20
231305.000
 30
0.0
 70
     0
  0
VERTEX
  8
Gemeinde
 10
678177.000
 20
231295.000
 30
0.0
 70
     0
  0
VERTEX
  8
Gemeinde
 10
678185.000
 20
231282.000
 30
0.0
 70
     0
  0
VERTEX
  8
Gemeinde
 10
678192.000
 20
231285.000
 30
0.0
 70
     0
  0
VERTEX
  8
Gemeinde
 10
678207.000
 20
231265.000
 30
0.0
 70
     0
  0
VERTEX
  8
Gemeinde
 10
678205.000
 20
231235.000
 30
0.0
 70
     0
  0
VERTEX
  8
Gemeinde
 10
678210.000
 20
231212.000
 30
0.0
 70
     0
  0
VERTEX
  8
Gemeinde
 10
678200.000
 20
231192.000
 30
0.0
 70
     0
  0
VERTEX
  8
Gemeinde
 10
678205.000
 20
231187.000
 30
0.0
 70
     0
  0
VERTEX
  8
Gemeinde
 10
678220.000
 20
231190.000
 30
0.0
 70
     0
  0
VERTEX
  8
Gemeinde
 10
678225.000
 20
231177.000
 30
0.0
 70
     0
  0
VERTEX
  8
Gemeinde
 10
678237.000
 20
231177.000
 30
0.0
 70
     0
  0
VERTEX
  8
Gemeinde
 10
678262.000
 20
231142.000
 30
0.0
 70
     0
  0
VERTEX
  8
Gemeinde
 10
678290.000
 20
231090.000
 30
0.0
 70
     0
  0
VERTEX
  8
Gemeinde
 10
678350.000
 20
231080.000
 30
0.0
 70
     0
  0
VERTEX
  8
Gemeinde
 10
678377.000
 20
231067.000
 30
0.0
 70
     0
  0
VERTEX
  8
Gemeinde
 10
678387.000
 20
231057.000
 30
0.0
 70
     0
  0
VERTEX
  8
Gemeinde
 10
678432.000
 20
231045.000
 30
0.0
 70
     0
  0
VERTEX
  8
Gemeinde
 10
678445.000
 20
231050.000
 30
0.0
 70
     0
  0
VERTEX
  8
Gemeinde
 10
678460.000
 20
231067.000
 30
0.0
 70
     0
  0
VERTEX
  8
Gemeinde
 10
678492.000
 20
231050.000
 30
0.0
 70
     0
  0
VERTEX
  8
Gemeinde
 10
678530.000
 20
231040.000
 30
0.0
 70
     0
  0
VERTEX
  8
Gemeinde
 10
678555.000
 20
231022.000
 30
0.0
 70
     0
  0
VERTEX
  8
Gemeinde
 10
678582.000
 20
231017.000
 30
0.0
 70
     0
  0
VERTEX
  8
Gemeinde
 10
678610.000
 20
231002.000
 30
0.0
 70
     0
  0
VERTEX
  8
Gemeinde
 10
678627.000
 20
230985.000
 30
0.0
 70
     0
  0
VERTEX
  8
Gemeinde
 10
678630.000
 20
230975.000
 30
0.0
 70
     0
  0
VERTEX
  8
Gemeinde
 10
678647.000
 20
230977.000
 30
0.0
 70
     0
  0
VERTEX
  8
Gemeinde
 10
678697.000
 20
230905.000
 30
0.0
 70
     0
  0
VERTEX
  8
Gemeinde
 10
678710.000
 20
230897.000
 30
0.0
 70
     0
  0
VERTEX
  8
Gemeinde
 10
678730.000
 20
230872.000
 30
0.0
 70
     0
  0
VERTEX
  8
Gemeinde
 10
678782.000
 20
230837.000
 30
0.0
 70
     0
  0
VERTEX
  8
Gemeinde
 10
678790.000
 20
230822.000
 30
0.0
 70
     0
  0
VERTEX
  8
Gemeinde
 10
678807.000
 20
230810.000
 30
0.0
 70
     0
  0
VERTEX
  8
Gemeinde
 10
678827.000
 20
230815.000
 30
0.0
 70
     0
  0
VERTEX
  8
Gemeinde
 10
678860.000
 20
230807.000
 30
0.0
 70
     0
  0
VERTEX
  8
Gemeinde
 10
678867.000
 20
230797.000
 30
0.0
 70
     0
  0
VERTEX
  8
Gemeinde
 10
678885.000
 20
230787.000
 30
0.0
 70
     0
  0
VERTEX
  8
Gemeinde
 10
678897.000
 20
230792.000
 30
0.0
 70
     0
  0
VERTEX
  8
Gemeinde
 10
678905.000
 20
230780.000
 30
0.0
 70
     0
  0
VERTEX
  8
Gemeinde
 10
678905.000
 20
230772.000
 30
0.0
 70
     0
  0
VERTEX
  8
Gemeinde
 10
678930.000
 20
230742.000
 30
0.0
 70
     0
  0
VERTEX
  8
Gemeinde
 10
678942.000
 20
230717.000
 30
0.0
 70
     0
  0
VERTEX
  8
Gemeinde
 10
678975.000
 20
230695.000
 30
0.0
 70
     0
  0
VERTEX
  8
Gemeinde
 10
678985.000
 20
230675.000
 30
0.0
 70
     0
  0
VERTEX
  8
Gemeinde
 10
679002.000
 20
230665.000
 30
0.0
 70
     0
  0
VERTEX
  8
Gemeinde
 10
679050.000
 20
230682.000
 30
0.0
 70
     0
  0
VERTEX
  8
Gemeinde
 10
679112.000
 20
230615.000
 30
0.0
 70
     0
  0
VERTEX
  8
Gemeinde
 10
679165.000
 20
230580.000
 30
0.0
 70
     0
  0
VERTEX
  8
Gemeinde
 10
679217.000
 20
230567.000
 30
0.0
 70
     0
  0
VERTEX
  8
Gemeinde
 10
679240.000
 20
230547.000
 30
0.0
 70
     0
  0
VERTEX
  8
Gemeinde
 10
679255.000
 20
230502.000
 30
0.0
 70
     0
  0
VERTEX
  8
Gemeinde
 10
679277.000
 20
230347.000
 30
0.0
 70
     0
  0
VERTEX
  8
Gemeinde
 10
679275.000
 20
230295.000
 30
0.0
 70
     0
  0
VERTEX
  8
Gemeinde
 10
679285.000
 20
230257.000
 30
0.0
 70
     0
  0
SEQEND
  0
POLYLINE
  8
Kanton
 66
     1
 70
     0
  0
VERTEX
  8
Kanton
 10
686025.000
 20
230170.000
 30
0.0
 70
     0
  0
VERTEX
  8
Kanton
 10
686045.000
 20
230177.000
 30
0.0
 70
     0
  0
VERTEX
  8
Kanton
 10
686115.000
 20
230190.000
 30
0.0
 70
     0
  0
VERTEX
  8
Kanton
 10
686192.000
 20
230240.000
 30
0.0
 70
     0
  0
VERTEX
  8
Kanton
 10
686205.000
 20
230262.000
 30
0.0
 70
     0
  0
VERTEX
  8
Kanton
 10
686172.000
 20
230317.000
 30
0.0
 70
     0
  0
VERTEX
  8
Kanton
 10
686167.000
 20
230352.000
 30
0.0
 70
     0
  0
VERTEX
  8
Kanton
 10
686170.000
 20
230385.000
 30
0.0
 70
     0
  0
VERTEX
  8
Kanton
 10
686180.000
 20
230400.000
 30
0.0
 70
     0
  0
VERTEX
  8
Kanton
 10
686237.000
 20
230377.000
 30
0.0
 70
     0
  0
SEQEND
  0
POLYLINE
  8
Kanton
 66
     1
 70
     0
  0
VERTEX
  8
Kanton
 10
683672.000
 20
230715.000
 30
0.0
 70
     0
  0
VERTEX
  8
Kanton
 10
683800.000
 20
230682.000
 30
0.0
 70
     0
  0
VERTEX
  8
Kanton
 10
683797.000
 20
230672.000
 30
0.0
 70
     0
  0
VERTEX
  8
Kanton
 10
683855.000
 20
230657.000
 30
0.0
 70
     0
  0
VERTEX
  8
Kanton
 10
683925.000
 20
230715.000
 30
0.0
 70
     0
  0
VERTEX
  8
Kanton
 10
684002.000
 20
230715.000
 30
0.0
 70
     0
  0
VERTEX
  8
Kanton
 10
684182.000
 20
230705.000
 30
0.0
 70
     0
  0
VERTEX
  8
Kanton
 10
684247.000
 20
230692.000
 30
0.0
 70
     0
  0
VERTEX
  8
Kanton
 10
684385.000
 20
230682.000
 30
0.0
 70
     0
  0
VERTEX
  8
Kanton
 10
684450.000
 20
230862.000
 30
0.0
 70
     0
  0
VERTEX
  8
Kanton
 10
684717.000
 20
230700.000
 30
0.0
 70
     0
  0
VERTEX
  8
Kanton
 10
684750.000
 20
230685.000
 30
0.0
 70
     0
  0
VERTEX
  8
Kanton
 10
684770.000
 20
230665.000
 30
0.0
 70
     0
  0
VERTEX
  8
Kanton
 10
684800.000
 20
230665.000
 30
0.0
 70
     0
  0
VERTEX
  8
Kanton
 10
684800.000
 20
230640.000
 30
0.0
 70
     0
  0
VERTEX
  8
Kanton
 10
684835.000
 20
230552.000
 30
0.0
 70
     0
  0
VERTEX
  8
Kanton
 10
684860.000
 20
230517.000
 30
0.0
 70
     0
  0
VERTEX
  8
Kanton
 10
684957.000
 20
230450.000
 30
0.0
 70
     0
  0
VERTEX
  8
Kanton
 10
685080.000
 20
230457.000
 30
0.0
 70
     0
  0
VERTEX
  8
Kanton
 10
685242.000
 20
230460.000
 30
0.0
 70
     0
  0
VERTEX
  8
Kanton
 10
685402.000
 20
230400.000
 30
0.0
 70
     0
  0
VERTEX
  8
Kanton
 10
685450.000
 20
230372.000
 30
0.0
 70
     0
  0
VERTEX
  8
Kanton
 10
685480.000
 20
230342.000
 30
0.0
 70
     0
  0
VERTEX
  8
Kanton
 10
685622.000
 20
230342.000
 30
0.0
 70
     0
  0
VERTEX
  8
Kanton
 10
685685.000
 20
230332.000
 30
0.0
 70
     0
  0
VERTEX
  8
Kanton
 10
685730.000
 20
230335.000
 30
0.0
 70
     0
  0
VERTEX
  8
Kanton
 10
685805.000
 20
230350.000
 30
0.0
 70
     0
  0
VERTEX
  8
Kanton
 10
685900.000
 20
230337.000
 30
0.0
 70
     0
  0
VERTEX
  8
Kanton
 10
685930.000
 20
230327.000
 30
0.0
 70
     0
  0
VERTEX
  8
Kanton
 10
686017.000
 20
230260.000
 30
0.0
 70
     0
  0
VERTEX
  8
Kanton
 10
686030.000
 20
230242.000
 30
0.0
 70
     0
  0
VERTEX
  8
Kanton
 10
686022.000
 20
230207.000
 30
0.0
 70
     0
  0
VERTEX
  8
Kanton
 10
686025.000
 20
230170.000
 30
0.0
 70
     0
  0
SEQEND
  0
POINT
  8
Stallikon
 10
679500.000
 20
242100.000
 30
0.000
 50
0.00000000
  0
POINT
  8
Adliswil
 10
682200.000
 20
240700.000
 30
0.000
 50
0.00000000
  0
POINT
  8
Langnau_am_Albis
 10
683400.000
 20
238100.000
 30
0.000
 50
0.00000000
  0
POINT
  8
Aeugst_am_Albis
 10
679300.000
 20
235700.000
 30
0.000
 50
0.00000000
  0
POINT
  8
Hausen_am_Albis
 10
682900.000
 20
233100.000
 30
0.000
 50
0.00000000
  0
POINT
  8
Mettmenstetten
 10
677600.000
 20
233000.000
 30
0.000
 50
0.00000000
  0
POINT
  8
Rifferswil
 10
680100.000
 20
232800.000
 30
0.000
 50
0.00000000
  0
ENDSEC
  0
EOF
